<svg width="289" height="169" viewBox="0 0 289 169" fill="none" xmlns="http://www.w3.org/2000/svg">
<rect x="0.5" y="0.5" width="183" height="42" rx="9.5" fill="white"/>
<rect x="0.5" y="0.5" width="183" height="42" rx="9.5" stroke="#A11692"/>
<rect x="15.5" y="10.5" width="22" height="22" rx="11" stroke="#A11692"/>
<path d="M22 22.5L25 25.5L31.5 18.5" stroke="#A11692"/>
<path d="M49.6 27V15.825H51.07V25.65H55.975V27H49.6ZM61.9323 27.18C61.1523 27.18 60.4573 26.995 59.8473 26.625C59.2373 26.255 58.7573 25.75 58.4073 25.11C58.0573 24.46 57.8823 23.735 57.8823 22.935C57.8823 22.125 58.0523 21.405 58.3923 20.775C58.7423 20.145 59.2123 19.65 59.8023 19.29C60.4023 18.92 61.0723 18.735 61.8123 18.735C62.4123 18.735 62.9423 18.845 63.4023 19.065C63.8723 19.275 64.2673 19.565 64.5873 19.935C64.9173 20.295 65.1673 20.71 65.3373 21.18C65.5173 21.64 65.6073 22.12 65.6073 22.62C65.6073 22.73 65.5973 22.855 65.5773 22.995C65.5673 23.125 65.5523 23.25 65.5323 23.37H58.9023V22.17H64.7223L64.0623 22.71C64.1523 22.19 64.1023 21.725 63.9123 21.315C63.7223 20.905 63.4423 20.58 63.0723 20.34C62.7023 20.1 62.2823 19.98 61.8123 19.98C61.3423 19.98 60.9123 20.1 60.5223 20.34C60.1323 20.58 59.8273 20.925 59.6073 21.375C59.3973 21.815 59.3123 22.34 59.3523 22.95C59.3123 23.54 59.4023 24.06 59.6223 24.51C59.8523 24.95 60.1723 25.295 60.5823 25.545C61.0023 25.785 61.4573 25.905 61.9473 25.905C62.4873 25.905 62.9423 25.78 63.3123 25.53C63.6823 25.28 63.9823 24.96 64.2123 24.57L65.3823 25.17C65.2223 25.54 64.9723 25.88 64.6323 26.19C64.3023 26.49 63.9073 26.73 63.4473 26.91C62.9973 27.09 62.4923 27.18 61.9323 27.18ZM72.3612 27.18C71.7112 27.18 71.1162 27.035 70.5762 26.745C70.0462 26.455 69.6362 26.045 69.3462 25.515L69.5412 25.275V27H68.1762V15.645H69.5712V20.655L69.3612 20.31C69.6612 19.83 70.0712 19.45 70.5912 19.17C71.1112 18.88 71.7062 18.735 72.3762 18.735C73.1362 18.735 73.8162 18.92 74.4162 19.29C75.0262 19.66 75.5062 20.165 75.8562 20.805C76.2062 21.435 76.3812 22.155 76.3812 22.965C76.3812 23.755 76.2062 24.47 75.8562 25.11C75.5062 25.75 75.0262 26.255 74.4162 26.625C73.8162 26.995 73.1312 27.18 72.3612 27.18ZM72.2562 25.83C72.7662 25.83 73.2212 25.705 73.6212 25.455C74.0212 25.205 74.3312 24.865 74.5512 24.435C74.7812 23.995 74.8962 23.505 74.8962 22.965C74.8962 22.405 74.7812 21.915 74.5512 21.495C74.3312 21.065 74.0212 20.725 73.6212 20.475C73.2212 20.215 72.7662 20.085 72.2562 20.085C71.7462 20.085 71.2862 20.21 70.8762 20.46C70.4762 20.71 70.1562 21.055 69.9162 21.495C69.6862 21.925 69.5712 22.415 69.5712 22.965C69.5712 23.505 69.6862 23.995 69.9162 24.435C70.1562 24.865 70.4762 25.205 70.8762 25.455C71.2862 25.705 71.7462 25.83 72.2562 25.83ZM78.9604 27V18.915H80.3554V27H78.9604ZM78.9604 17.625V15.825H80.3554V17.625H78.9604ZM83.2699 27V15.645H84.6649V20.49L84.4099 20.355C84.6099 19.845 84.9299 19.45 85.3699 19.17C85.8199 18.88 86.3449 18.735 86.9449 18.735C87.5249 18.735 88.0399 18.865 88.4899 19.125C88.9499 19.385 89.3099 19.745 89.5699 20.205C89.8399 20.665 89.9749 21.185 89.9749 21.765V27H88.5649V22.215C88.5649 21.765 88.4799 21.385 88.3099 21.075C88.1499 20.765 87.9249 20.525 87.6349 20.355C87.3449 20.175 87.0099 20.085 86.6299 20.085C86.2599 20.085 85.9249 20.175 85.6249 20.355C85.3249 20.525 85.0899 20.77 84.9199 21.09C84.7499 21.4 84.6649 21.775 84.6649 22.215V27H83.2699ZM96.0639 30V18.915H97.4289V20.655L97.2489 20.31C97.5489 19.83 97.9589 19.45 98.4789 19.17C98.9989 18.88 99.5939 18.735 100.264 18.735C101.024 18.735 101.704 18.92 102.304 19.29C102.914 19.66 103.394 20.165 103.744 20.805C104.094 21.435 104.269 22.155 104.269 22.965C104.269 23.755 104.094 24.47 103.744 25.11C103.394 25.75 102.914 26.255 102.304 26.625C101.704 26.995 101.019 27.18 100.249 27.18C99.5989 27.18 99.0039 27.035 98.4639 26.745C97.9339 26.455 97.5239 26.045 97.2339 25.515L97.4589 25.275V30H96.0639ZM100.144 25.83C100.654 25.83 101.109 25.705 101.509 25.455C101.909 25.205 102.219 24.865 102.439 24.435C102.669 23.995 102.784 23.505 102.784 22.965C102.784 22.405 102.669 21.915 102.439 21.495C102.219 21.065 101.909 20.725 101.509 20.475C101.109 20.215 100.654 20.085 100.144 20.085C99.6339 20.085 99.1739 20.21 98.7639 20.46C98.3639 20.71 98.0439 21.055 97.8039 21.495C97.5739 21.925 97.4589 22.415 97.4589 22.965C97.4589 23.505 97.5739 23.995 97.8039 24.435C98.0439 24.865 98.3639 25.205 98.7639 25.455C99.1739 25.705 99.6339 25.83 100.144 25.83ZM106.848 27V18.915H108.213V20.4L108.063 20.19C108.253 19.73 108.543 19.39 108.933 19.17C109.323 18.94 109.798 18.825 110.358 18.825H110.853V20.145H110.148C109.578 20.145 109.118 20.325 108.768 20.685C108.418 21.035 108.243 21.535 108.243 22.185V27H106.848ZM116.682 27.18C115.902 27.18 115.197 27 114.567 26.64C113.937 26.27 113.437 25.765 113.067 25.125C112.697 24.485 112.512 23.76 112.512 22.95C112.512 22.14 112.692 21.42 113.052 20.79C113.422 20.16 113.922 19.66 114.552 19.29C115.182 18.92 115.892 18.735 116.682 18.735C117.462 18.735 118.167 18.92 118.797 19.29C119.427 19.65 119.922 20.145 120.282 20.775C120.652 21.405 120.837 22.13 120.837 22.95C120.837 23.77 120.647 24.5 120.267 25.14C119.887 25.77 119.382 26.27 118.752 26.64C118.132 27 117.442 27.18 116.682 27.18ZM116.682 25.83C117.182 25.83 117.632 25.705 118.032 25.455C118.442 25.205 118.762 24.86 118.992 24.42C119.232 23.98 119.352 23.49 119.352 22.95C119.352 22.4 119.232 21.915 118.992 21.495C118.762 21.065 118.442 20.725 118.032 20.475C117.632 20.215 117.182 20.085 116.682 20.085C116.172 20.085 115.712 20.215 115.302 20.475C114.902 20.725 114.582 21.065 114.342 21.495C114.102 21.915 113.982 22.4 113.982 22.95C113.982 23.49 114.102 23.98 114.342 24.42C114.582 24.86 114.902 25.205 115.302 25.455C115.712 25.705 116.172 25.83 116.682 25.83ZM127.082 27.18C126.322 27.18 125.637 26.995 125.027 26.625C124.427 26.255 123.952 25.75 123.602 25.11C123.252 24.47 123.077 23.755 123.077 22.965C123.077 22.155 123.252 21.435 123.602 20.805C123.952 20.165 124.427 19.66 125.027 19.29C125.637 18.92 126.322 18.735 127.082 18.735C127.752 18.735 128.347 18.88 128.867 19.17C129.387 19.45 129.797 19.83 130.097 20.31L129.872 20.655V15.645H131.282V27H129.917V25.275L130.097 25.515C129.817 26.045 129.407 26.455 128.867 26.745C128.337 27.035 127.742 27.18 127.082 27.18ZM127.202 25.83C127.712 25.83 128.167 25.705 128.567 25.455C128.967 25.205 129.282 24.865 129.512 24.435C129.752 23.995 129.872 23.505 129.872 22.965C129.872 22.415 129.752 21.925 129.512 21.495C129.282 21.055 128.967 20.71 128.567 20.46C128.167 20.21 127.712 20.085 127.202 20.085C126.702 20.085 126.247 20.215 125.837 20.475C125.437 20.725 125.122 21.065 124.892 21.495C124.662 21.915 124.547 22.405 124.547 22.965C124.547 23.505 124.662 23.995 124.892 24.435C125.122 24.865 125.437 25.205 125.837 25.455C126.237 25.705 126.692 25.83 127.202 25.83ZM137.056 27.18C136.476 27.18 135.951 27.045 135.481 26.775C135.021 26.505 134.661 26.13 134.401 25.65C134.151 25.16 134.026 24.6 134.026 23.97V18.915H135.421V23.82C135.421 24.22 135.501 24.57 135.661 24.87C135.831 25.17 136.061 25.405 136.351 25.575C136.651 25.745 136.991 25.83 137.371 25.83C137.751 25.83 138.086 25.745 138.376 25.575C138.676 25.405 138.906 25.16 139.066 24.84C139.236 24.52 139.321 24.14 139.321 23.7V18.915H140.731V27H139.366V25.425L139.591 25.56C139.401 26.07 139.076 26.47 138.616 26.76C138.166 27.04 137.646 27.18 137.056 27.18ZM143.642 27V15.645H145.037V23.43L144.467 23.295L148.757 18.915H150.542L147.437 22.17L150.752 27H149.102L146.072 22.62L146.942 22.575L144.587 25.035L145.037 24.015V27H143.642ZM156.041 27.09C155.251 27.09 154.641 26.865 154.211 26.415C153.791 25.965 153.581 25.33 153.581 24.51V20.25H152.111V18.915H152.411C152.771 18.915 153.056 18.805 153.266 18.585C153.476 18.365 153.581 18.075 153.581 17.715V17.055H154.976V18.915H156.791V20.25H154.976V24.465C154.976 24.735 155.016 24.97 155.096 25.17C155.186 25.37 155.331 25.53 155.531 25.65C155.731 25.76 155.996 25.815 156.326 25.815C156.396 25.815 156.481 25.81 156.581 25.8C156.691 25.79 156.791 25.78 156.881 25.77V27C156.751 27.03 156.606 27.05 156.446 27.06C156.286 27.08 156.151 27.09 156.041 27.09ZM159.454 27V18.915H160.849V27H159.454ZM159.454 17.625V15.825H160.849V17.625H159.454ZM164.618 27V20.25H163.073V18.915H164.618V18.345C164.618 17.765 164.743 17.275 164.993 16.875C165.253 16.475 165.593 16.17 166.013 15.96C166.443 15.75 166.918 15.645 167.438 15.645C167.548 15.645 167.668 15.655 167.798 15.675C167.938 15.685 168.053 15.7 168.143 15.72V16.965C168.063 16.945 167.968 16.935 167.858 16.935C167.748 16.925 167.663 16.92 167.603 16.92C167.143 16.92 166.763 17.03 166.463 17.25C166.173 17.47 166.028 17.835 166.028 18.345V18.915H167.948V20.25H166.028V27H164.618Z" fill="#1E1E1E"/>
<rect x="0.5" y="63.5" width="206" height="42" rx="9.5" fill="white"/>
<rect x="0.5" y="63.5" width="206" height="42" rx="9.5" stroke="#A11692"/>
<rect x="15.5" y="73.5" width="22" height="22" rx="11" stroke="#A11692"/>
<path d="M22 85.5L25 88.5L31.5 81.5" stroke="#A11692"/>
<path d="M49.4911 90V78.825H50.8411L55.0261 84.78H54.3361L58.4911 78.825H59.8411V90H58.3561V80.685L58.8811 80.85L54.7261 86.7H54.6061L50.4961 80.85L50.9611 80.685V90H49.4911ZM66.6281 90.18C65.8481 90.18 65.1531 89.995 64.5431 89.625C63.9331 89.255 63.4531 88.75 63.1031 88.11C62.7531 87.46 62.5781 86.735 62.5781 85.935C62.5781 85.125 62.7481 84.405 63.0881 83.775C63.4381 83.145 63.9081 82.65 64.4981 82.29C65.0981 81.92 65.7681 81.735 66.5081 81.735C67.1081 81.735 67.6381 81.845 68.0981 82.065C68.5681 82.275 68.9631 82.565 69.2831 82.935C69.6131 83.295 69.8631 83.71 70.0331 84.18C70.2131 84.64 70.3031 85.12 70.3031 85.62C70.3031 85.73 70.2931 85.855 70.2731 85.995C70.2631 86.125 70.2481 86.25 70.2281 86.37H63.5981V85.17H69.4181L68.7581 85.71C68.8481 85.19 68.7981 84.725 68.6081 84.315C68.4181 83.905 68.1381 83.58 67.7681 83.34C67.3981 83.1 66.9781 82.98 66.5081 82.98C66.0381 82.98 65.6081 83.1 65.2181 83.34C64.8281 83.58 64.5231 83.925 64.3031 84.375C64.0931 84.815 64.0081 85.34 64.0481 85.95C64.0081 86.54 64.0981 87.06 64.3181 87.51C64.5481 87.95 64.8681 88.295 65.2781 88.545C65.6981 88.785 66.1531 88.905 66.6431 88.905C67.1831 88.905 67.6381 88.78 68.0081 88.53C68.3781 88.28 68.6781 87.96 68.9081 87.57L70.0781 88.17C69.9181 88.54 69.6681 88.88 69.3281 89.19C68.9981 89.49 68.6031 89.73 68.1431 89.91C67.6931 90.09 67.1881 90.18 66.6281 90.18ZM72.872 90V81.915H74.237V83.49L74.012 83.355C74.212 82.845 74.532 82.45 74.972 82.17C75.422 81.88 75.947 81.735 76.547 81.735C77.127 81.735 77.642 81.865 78.092 82.125C78.552 82.385 78.912 82.745 79.172 83.205C79.442 83.665 79.577 84.185 79.577 84.765V90H78.167V85.215C78.167 84.765 78.087 84.385 77.927 84.075C77.767 83.765 77.537 83.525 77.237 83.355C76.947 83.175 76.612 83.085 76.232 83.085C75.852 83.085 75.512 83.175 75.212 83.355C74.922 83.525 74.692 83.77 74.522 84.09C74.352 84.4 74.267 84.775 74.267 85.215V90H72.872ZM86.1782 93.3C85.6082 93.3 85.0782 93.21 84.5882 93.03C84.1082 92.85 83.6932 92.6 83.3432 92.28C83.0032 91.97 82.7432 91.605 82.5632 91.185L83.8682 90.585C84.0082 90.965 84.2732 91.285 84.6632 91.545C85.0632 91.815 85.5632 91.95 86.1632 91.95C86.6232 91.95 87.0382 91.86 87.4082 91.68C87.7882 91.51 88.0882 91.25 88.3082 90.9C88.5282 90.56 88.6382 90.145 88.6382 89.655V87.84L88.8932 88.11C88.6132 88.66 88.2082 89.08 87.6782 89.37C87.1582 89.66 86.5832 89.805 85.9532 89.805C85.1932 89.805 84.5132 89.63 83.9132 89.28C83.3132 88.92 82.8432 88.435 82.5032 87.825C82.1632 87.205 81.9932 86.52 81.9932 85.77C81.9932 85.01 82.1632 84.325 82.5032 83.715C82.8432 83.105 83.3082 82.625 83.8982 82.275C84.4982 81.915 85.1782 81.735 85.9382 81.735C86.5682 81.735 87.1382 81.88 87.6482 82.17C88.1682 82.45 88.5832 82.84 88.8932 83.34L88.6832 83.715V81.915H90.0482V89.655C90.0482 90.355 89.8832 90.98 89.5532 91.53C89.2232 92.08 88.7632 92.51 88.1732 92.82C87.5932 93.14 86.9282 93.3 86.1782 93.3ZM86.0732 88.455C86.5532 88.455 86.9832 88.335 87.3632 88.095C87.7532 87.855 88.0632 87.535 88.2932 87.135C88.5232 86.725 88.6382 86.27 88.6382 85.77C88.6382 85.28 88.5232 84.83 88.2932 84.42C88.0632 84.01 87.7532 83.685 87.3632 83.445C86.9832 83.205 86.5532 83.085 86.0732 83.085C85.5832 83.085 85.1382 83.205 84.7382 83.445C84.3382 83.685 84.0232 84.01 83.7932 84.42C83.5732 84.82 83.4632 85.27 83.4632 85.77C83.4632 86.27 83.5732 86.725 83.7932 87.135C84.0232 87.535 84.3332 87.855 84.7232 88.095C85.1232 88.335 85.5732 88.455 86.0732 88.455ZM92.9609 90V78.645H94.3559V83.49L94.1009 83.355C94.3009 82.845 94.6209 82.45 95.0609 82.17C95.5109 81.88 96.0359 81.735 96.6359 81.735C97.2159 81.735 97.7309 81.865 98.1809 82.125C98.6409 82.385 99.0009 82.745 99.2609 83.205C99.5309 83.665 99.6659 84.185 99.6659 84.765V90H98.2559V85.215C98.2559 84.765 98.1709 84.385 98.0009 84.075C97.8409 83.765 97.6159 83.525 97.3259 83.355C97.0359 83.175 96.7009 83.085 96.3209 83.085C95.9509 83.085 95.6159 83.175 95.3159 83.355C95.0159 83.525 94.7809 83.77 94.6109 84.09C94.4409 84.4 94.3559 84.775 94.3559 85.215V90H92.9609ZM106.132 90.18C105.352 90.18 104.657 89.995 104.047 89.625C103.437 89.255 102.957 88.75 102.607 88.11C102.257 87.46 102.082 86.735 102.082 85.935C102.082 85.125 102.252 84.405 102.592 83.775C102.942 83.145 103.412 82.65 104.002 82.29C104.602 81.92 105.272 81.735 106.012 81.735C106.612 81.735 107.142 81.845 107.602 82.065C108.072 82.275 108.467 82.565 108.787 82.935C109.117 83.295 109.367 83.71 109.537 84.18C109.717 84.64 109.807 85.12 109.807 85.62C109.807 85.73 109.797 85.855 109.777 85.995C109.767 86.125 109.752 86.25 109.732 86.37H103.102V85.17H108.922L108.262 85.71C108.352 85.19 108.302 84.725 108.112 84.315C107.922 83.905 107.642 83.58 107.272 83.34C106.902 83.1 106.482 82.98 106.012 82.98C105.542 82.98 105.112 83.1 104.722 83.34C104.332 83.58 104.027 83.925 103.807 84.375C103.597 84.815 103.512 85.34 103.552 85.95C103.512 86.54 103.602 87.06 103.822 87.51C104.052 87.95 104.372 88.295 104.782 88.545C105.202 88.785 105.657 88.905 106.147 88.905C106.687 88.905 107.142 88.78 107.512 88.53C107.882 88.28 108.182 87.96 108.412 87.57L109.582 88.17C109.422 88.54 109.172 88.88 108.832 89.19C108.502 89.49 108.107 89.73 107.647 89.91C107.197 90.09 106.692 90.18 106.132 90.18ZM112.376 90V81.915H113.741V83.565L113.546 83.31C113.746 82.8 114.066 82.41 114.506 82.14C114.946 81.87 115.441 81.735 115.991 81.735C116.621 81.735 117.186 81.91 117.686 82.26C118.196 82.61 118.546 83.07 118.736 83.64L118.346 83.655C118.556 83.025 118.911 82.55 119.411 82.23C119.911 81.9 120.466 81.735 121.076 81.735C121.636 81.735 122.141 81.865 122.591 82.125C123.051 82.385 123.416 82.745 123.686 83.205C123.956 83.665 124.091 84.185 124.091 84.765V90H122.681V85.215C122.681 84.765 122.601 84.385 122.441 84.075C122.281 83.765 122.061 83.525 121.781 83.355C121.511 83.175 121.191 83.085 120.821 83.085C120.461 83.085 120.136 83.175 119.846 83.355C119.566 83.525 119.341 83.77 119.171 84.09C119.011 84.4 118.931 84.775 118.931 85.215V90H117.521V85.215C117.521 84.765 117.441 84.385 117.281 84.075C117.121 83.765 116.901 83.525 116.621 83.355C116.351 83.175 116.031 83.085 115.661 83.085C115.301 83.085 114.976 83.175 114.686 83.355C114.406 83.525 114.181 83.77 114.011 84.09C113.851 84.4 113.771 84.775 113.771 85.215V90H112.376ZM129.192 90.18C128.662 90.18 128.192 90.085 127.782 89.895C127.382 89.695 127.067 89.425 126.837 89.085C126.607 88.735 126.492 88.335 126.492 87.885C126.492 87.455 126.582 87.07 126.762 86.73C126.952 86.38 127.242 86.085 127.632 85.845C128.032 85.605 128.532 85.435 129.132 85.335L132.132 84.84V86.01L129.447 86.46C128.927 86.55 128.547 86.715 128.307 86.955C128.077 87.195 127.962 87.49 127.962 87.84C127.962 88.17 128.092 88.445 128.352 88.665C128.622 88.885 128.957 88.995 129.357 88.995C129.867 88.995 130.307 88.89 130.677 88.68C131.057 88.46 131.352 88.165 131.562 87.795C131.782 87.425 131.892 87.015 131.892 86.565V84.51C131.892 84.07 131.727 83.715 131.397 83.445C131.077 83.165 130.652 83.025 130.122 83.025C129.662 83.025 129.252 83.145 128.892 83.385C128.542 83.615 128.282 83.925 128.112 84.315L126.897 83.685C127.047 83.315 127.287 82.985 127.617 82.695C127.947 82.395 128.332 82.16 128.772 81.99C129.212 81.82 129.672 81.735 130.152 81.735C130.772 81.735 131.317 81.855 131.787 82.095C132.257 82.325 132.622 82.65 132.882 83.07C133.152 83.48 133.287 83.96 133.287 84.51V90H131.922V88.47L132.177 88.56C132.007 88.88 131.777 89.16 131.487 89.4C131.197 89.64 130.857 89.83 130.467 89.97C130.077 90.11 129.652 90.18 129.192 90.18ZM139.339 90.09C138.549 90.09 137.939 89.865 137.509 89.415C137.089 88.965 136.879 88.33 136.879 87.51V83.25H135.409V81.915H135.709C136.069 81.915 136.354 81.805 136.564 81.585C136.774 81.365 136.879 81.075 136.879 80.715V80.055H138.274V81.915H140.089V83.25H138.274V87.465C138.274 87.735 138.314 87.97 138.394 88.17C138.484 88.37 138.629 88.53 138.829 88.65C139.029 88.76 139.294 88.815 139.624 88.815C139.694 88.815 139.779 88.81 139.879 88.8C139.989 88.79 140.089 88.78 140.179 88.77V90C140.049 90.03 139.904 90.05 139.744 90.06C139.584 90.08 139.449 90.09 139.339 90.09ZM147.954 90L145.179 81.915H146.724L148.929 88.68L148.389 88.665L150.549 81.915H151.869L154.029 88.665L153.489 88.68L155.709 81.915H157.239L154.464 90H153.129L150.999 83.25H151.419L149.289 90H147.954ZM161.313 90.18C160.783 90.18 160.313 90.085 159.903 89.895C159.503 89.695 159.188 89.425 158.958 89.085C158.728 88.735 158.613 88.335 158.613 87.885C158.613 87.455 158.703 87.07 158.883 86.73C159.073 86.38 159.363 86.085 159.753 85.845C160.153 85.605 160.653 85.435 161.253 85.335L164.253 84.84V86.01L161.568 86.46C161.048 86.55 160.668 86.715 160.428 86.955C160.198 87.195 160.083 87.49 160.083 87.84C160.083 88.17 160.213 88.445 160.473 88.665C160.743 88.885 161.078 88.995 161.478 88.995C161.988 88.995 162.428 88.89 162.798 88.68C163.178 88.46 163.473 88.165 163.683 87.795C163.903 87.425 164.013 87.015 164.013 86.565V84.51C164.013 84.07 163.848 83.715 163.518 83.445C163.198 83.165 162.773 83.025 162.243 83.025C161.783 83.025 161.373 83.145 161.013 83.385C160.663 83.615 160.403 83.925 160.233 84.315L159.018 83.685C159.168 83.315 159.408 82.985 159.738 82.695C160.068 82.395 160.453 82.16 160.893 81.99C161.333 81.82 161.793 81.735 162.273 81.735C162.893 81.735 163.438 81.855 163.908 82.095C164.378 82.325 164.743 82.65 165.003 83.07C165.273 83.48 165.408 83.96 165.408 84.51V90H164.043V88.47L164.298 88.56C164.128 88.88 163.898 89.16 163.608 89.4C163.318 89.64 162.978 89.83 162.588 89.97C162.198 90.11 161.773 90.18 161.313 90.18ZM168.321 90V78.645H169.716V86.43L169.146 86.295L173.436 81.915H175.221L172.116 85.17L175.431 90H173.781L170.751 85.62L171.621 85.575L169.266 88.035L169.716 87.015V90H168.321ZM180.72 90.09C179.93 90.09 179.32 89.865 178.89 89.415C178.47 88.965 178.26 88.33 178.26 87.51V83.25H176.79V81.915H177.09C177.45 81.915 177.735 81.805 177.945 81.585C178.155 81.365 178.26 81.075 178.26 80.715V80.055H179.655V81.915H181.47V83.25H179.655V87.465C179.655 87.735 179.695 87.97 179.775 88.17C179.865 88.37 180.01 88.53 180.21 88.65C180.41 88.76 180.675 88.815 181.005 88.815C181.075 88.815 181.16 88.81 181.26 88.8C181.37 88.79 181.47 88.78 181.56 88.77V90C181.43 90.03 181.285 90.05 181.125 90.06C180.965 90.08 180.83 90.09 180.72 90.09ZM186.998 90.18C186.418 90.18 185.893 90.045 185.423 89.775C184.963 89.505 184.603 89.13 184.343 88.65C184.093 88.16 183.968 87.6 183.968 86.97V81.915H185.363V86.82C185.363 87.22 185.443 87.57 185.603 87.87C185.773 88.17 186.003 88.405 186.293 88.575C186.593 88.745 186.933 88.83 187.313 88.83C187.693 88.83 188.028 88.745 188.318 88.575C188.618 88.405 188.848 88.16 189.008 87.84C189.178 87.52 189.263 87.14 189.263 86.7V81.915H190.673V90H189.308V88.425L189.533 88.56C189.343 89.07 189.018 89.47 188.558 89.76C188.108 90.04 187.588 90.18 186.998 90.18Z" fill="#1E1E1E"/>
<rect x="0.5" y="126.5" width="288" height="42" rx="9.5" fill="white"/>
<rect x="0.5" y="126.5" width="288" height="42" rx="9.5" stroke="#A11692"/>
<rect x="15.5" y="136.5" width="22" height="22" rx="11" stroke="#A11692"/>
<path d="M22 148.5L25 151.5L31.5 144.5" stroke="#A11692"/>
<path d="M49.2763 153V141.825H50.6263L54.8113 147.78H54.1213L58.2763 141.825H59.6263V153H58.1413V143.685L58.6663 143.85L54.5113 149.7H54.3913L50.2813 143.85L50.7463 143.685V153H49.2763ZM66.4133 153.18C65.6333 153.18 64.9383 152.995 64.3283 152.625C63.7183 152.255 63.2383 151.75 62.8883 151.11C62.5383 150.46 62.3633 149.735 62.3633 148.935C62.3633 148.125 62.5333 147.405 62.8733 146.775C63.2233 146.145 63.6933 145.65 64.2833 145.29C64.8833 144.92 65.5533 144.735 66.2933 144.735C66.8933 144.735 67.4233 144.845 67.8833 145.065C68.3533 145.275 68.7483 145.565 69.0683 145.935C69.3983 146.295 69.6483 146.71 69.8183 147.18C69.9983 147.64 70.0883 148.12 70.0883 148.62C70.0883 148.73 70.0783 148.855 70.0583 148.995C70.0483 149.125 70.0333 149.25 70.0133 149.37H63.3833V148.17H69.2033L68.5433 148.71C68.6333 148.19 68.5833 147.725 68.3933 147.315C68.2033 146.905 67.9233 146.58 67.5533 146.34C67.1833 146.1 66.7633 145.98 66.2933 145.98C65.8233 145.98 65.3933 146.1 65.0033 146.34C64.6133 146.58 64.3083 146.925 64.0883 147.375C63.8783 147.815 63.7933 148.34 63.8333 148.95C63.7933 149.54 63.8833 150.06 64.1033 150.51C64.3333 150.95 64.6533 151.295 65.0633 151.545C65.4833 151.785 65.9383 151.905 66.4283 151.905C66.9683 151.905 67.4233 151.78 67.7933 151.53C68.1633 151.28 68.4633 150.96 68.6933 150.57L69.8633 151.17C69.7033 151.54 69.4533 151.88 69.1133 152.19C68.7833 152.49 68.3883 152.73 67.9283 152.91C67.4783 153.09 66.9733 153.18 66.4133 153.18ZM72.6571 153V144.915H74.0221V146.565L73.8271 146.31C74.0271 145.8 74.3471 145.41 74.7871 145.14C75.2271 144.87 75.7221 144.735 76.2721 144.735C76.9021 144.735 77.4671 144.91 77.9671 145.26C78.4771 145.61 78.8271 146.07 79.0171 146.64L78.6271 146.655C78.8371 146.025 79.1921 145.55 79.6921 145.23C80.1921 144.9 80.7471 144.735 81.3571 144.735C81.9171 144.735 82.4221 144.865 82.8721 145.125C83.3321 145.385 83.6971 145.745 83.9671 146.205C84.2371 146.665 84.3721 147.185 84.3721 147.765V153H82.9621V148.215C82.9621 147.765 82.8821 147.385 82.7221 147.075C82.5621 146.765 82.3421 146.525 82.0621 146.355C81.7921 146.175 81.4721 146.085 81.1021 146.085C80.7421 146.085 80.4171 146.175 80.1271 146.355C79.8471 146.525 79.6221 146.77 79.4521 147.09C79.2921 147.4 79.2121 147.775 79.2121 148.215V153H77.8021V148.215C77.8021 147.765 77.7221 147.385 77.5621 147.075C77.4021 146.765 77.1821 146.525 76.9021 146.355C76.6321 146.175 76.3121 146.085 75.9421 146.085C75.5821 146.085 75.2571 146.175 74.9671 146.355C74.6871 146.525 74.4621 146.77 74.2921 147.09C74.1321 147.4 74.0521 147.775 74.0521 148.215V153H72.6571ZM91.2884 153.18C90.6384 153.18 90.0434 153.035 89.5034 152.745C88.9734 152.455 88.5634 152.045 88.2734 151.515L88.4684 151.275V153H87.1034V141.645H88.4984V146.655L88.2884 146.31C88.5884 145.83 88.9984 145.45 89.5184 145.17C90.0384 144.88 90.6334 144.735 91.3034 144.735C92.0634 144.735 92.7434 144.92 93.3434 145.29C93.9534 145.66 94.4334 146.165 94.7834 146.805C95.1334 147.435 95.3084 148.155 95.3084 148.965C95.3084 149.755 95.1334 150.47 94.7834 151.11C94.4334 151.75 93.9534 152.255 93.3434 152.625C92.7434 152.995 92.0584 153.18 91.2884 153.18ZM91.1834 151.83C91.6934 151.83 92.1484 151.705 92.5484 151.455C92.9484 151.205 93.2584 150.865 93.4784 150.435C93.7084 149.995 93.8234 149.505 93.8234 148.965C93.8234 148.405 93.7084 147.915 93.4784 147.495C93.2584 147.065 92.9484 146.725 92.5484 146.475C92.1484 146.215 91.6934 146.085 91.1834 146.085C90.6734 146.085 90.2134 146.21 89.8034 146.46C89.4034 146.71 89.0834 147.055 88.8434 147.495C88.6134 147.925 88.4984 148.415 88.4984 148.965C88.4984 149.505 88.6134 149.995 88.8434 150.435C89.0834 150.865 89.4034 151.205 89.8034 151.455C90.2134 151.705 90.6734 151.83 91.1834 151.83ZM101.608 153.18C100.828 153.18 100.133 152.995 99.5226 152.625C98.9126 152.255 98.4326 151.75 98.0826 151.11C97.7326 150.46 97.5576 149.735 97.5576 148.935C97.5576 148.125 97.7276 147.405 98.0676 146.775C98.4176 146.145 98.8876 145.65 99.4776 145.29C100.078 144.92 100.748 144.735 101.488 144.735C102.088 144.735 102.618 144.845 103.078 145.065C103.548 145.275 103.943 145.565 104.263 145.935C104.593 146.295 104.843 146.71 105.013 147.18C105.193 147.64 105.283 148.12 105.283 148.62C105.283 148.73 105.273 148.855 105.253 148.995C105.243 149.125 105.228 149.25 105.208 149.37H98.5776V148.17H104.398L103.738 148.71C103.828 148.19 103.778 147.725 103.588 147.315C103.398 146.905 103.118 146.58 102.748 146.34C102.378 146.1 101.958 145.98 101.488 145.98C101.018 145.98 100.588 146.1 100.198 146.34C99.8076 146.58 99.5026 146.925 99.2826 147.375C99.0726 147.815 98.9876 148.34 99.0276 148.95C98.9876 149.54 99.0776 150.06 99.2976 150.51C99.5276 150.95 99.8476 151.295 100.258 151.545C100.678 151.785 101.133 151.905 101.623 151.905C102.163 151.905 102.618 151.78 102.988 151.53C103.358 151.28 103.658 150.96 103.888 150.57L105.058 151.17C104.898 151.54 104.648 151.88 104.308 152.19C103.978 152.49 103.583 152.73 103.123 152.91C102.673 153.09 102.168 153.18 101.608 153.18ZM107.851 153V144.915H109.216V146.4L109.066 146.19C109.256 145.73 109.546 145.39 109.936 145.17C110.326 144.94 110.801 144.825 111.361 144.825H111.856V146.145H111.151C110.581 146.145 110.121 146.325 109.771 146.685C109.421 147.035 109.246 147.535 109.246 148.185V153H107.851ZM113.846 153V144.915H115.241V153H113.846ZM113.846 143.625V141.825H115.241V143.625H113.846ZM121.498 153V141.645H122.893V153H121.498ZM128.178 153.18C127.648 153.18 127.178 153.085 126.768 152.895C126.368 152.695 126.053 152.425 125.823 152.085C125.593 151.735 125.478 151.335 125.478 150.885C125.478 150.455 125.568 150.07 125.748 149.73C125.938 149.38 126.228 149.085 126.618 148.845C127.018 148.605 127.518 148.435 128.118 148.335L131.118 147.84V149.01L128.433 149.46C127.913 149.55 127.533 149.715 127.293 149.955C127.063 150.195 126.948 150.49 126.948 150.84C126.948 151.17 127.078 151.445 127.338 151.665C127.608 151.885 127.943 151.995 128.343 151.995C128.853 151.995 129.293 151.89 129.663 151.68C130.043 151.46 130.338 151.165 130.548 150.795C130.768 150.425 130.878 150.015 130.878 149.565V147.51C130.878 147.07 130.713 146.715 130.383 146.445C130.063 146.165 129.638 146.025 129.108 146.025C128.648 146.025 128.238 146.145 127.878 146.385C127.528 146.615 127.268 146.925 127.098 147.315L125.883 146.685C126.033 146.315 126.273 145.985 126.603 145.695C126.933 145.395 127.318 145.16 127.758 144.99C128.198 144.82 128.658 144.735 129.138 144.735C129.758 144.735 130.303 144.855 130.773 145.095C131.243 145.325 131.608 145.65 131.868 146.07C132.138 146.48 132.273 146.96 132.273 147.51V153H130.908V151.47L131.163 151.56C130.993 151.88 130.763 152.16 130.473 152.4C130.183 152.64 129.843 152.83 129.453 152.97C129.063 153.11 128.638 153.18 128.178 153.18ZM135.185 156V144.915H136.55V146.655L136.37 146.31C136.67 145.83 137.08 145.45 137.6 145.17C138.12 144.88 138.715 144.735 139.385 144.735C140.145 144.735 140.825 144.92 141.425 145.29C142.035 145.66 142.515 146.165 142.865 146.805C143.215 147.435 143.39 148.155 143.39 148.965C143.39 149.755 143.215 150.47 142.865 151.11C142.515 151.75 142.035 152.255 141.425 152.625C140.825 152.995 140.14 153.18 139.37 153.18C138.72 153.18 138.125 153.035 137.585 152.745C137.055 152.455 136.645 152.045 136.355 151.515L136.58 151.275V156H135.185ZM139.265 151.83C139.775 151.83 140.23 151.705 140.63 151.455C141.03 151.205 141.34 150.865 141.56 150.435C141.79 149.995 141.905 149.505 141.905 148.965C141.905 148.405 141.79 147.915 141.56 147.495C141.34 147.065 141.03 146.725 140.63 146.475C140.23 146.215 139.775 146.085 139.265 146.085C138.755 146.085 138.295 146.21 137.885 146.46C137.485 146.71 137.165 147.055 136.925 147.495C136.695 147.925 136.58 148.415 136.58 148.965C136.58 149.505 136.695 149.995 136.925 150.435C137.165 150.865 137.485 151.205 137.885 151.455C138.295 151.705 138.755 151.83 139.265 151.83ZM148.34 153.18C147.81 153.18 147.34 153.085 146.93 152.895C146.53 152.695 146.215 152.425 145.985 152.085C145.755 151.735 145.64 151.335 145.64 150.885C145.64 150.455 145.73 150.07 145.91 149.73C146.1 149.38 146.39 149.085 146.78 148.845C147.18 148.605 147.68 148.435 148.28 148.335L151.28 147.84V149.01L148.595 149.46C148.075 149.55 147.695 149.715 147.455 149.955C147.225 150.195 147.11 150.49 147.11 150.84C147.11 151.17 147.24 151.445 147.5 151.665C147.77 151.885 148.105 151.995 148.505 151.995C149.015 151.995 149.455 151.89 149.825 151.68C150.205 151.46 150.5 151.165 150.71 150.795C150.93 150.425 151.04 150.015 151.04 149.565V147.51C151.04 147.07 150.875 146.715 150.545 146.445C150.225 146.165 149.8 146.025 149.27 146.025C148.81 146.025 148.4 146.145 148.04 146.385C147.69 146.615 147.43 146.925 147.26 147.315L146.045 146.685C146.195 146.315 146.435 145.985 146.765 145.695C147.095 145.395 147.48 145.16 147.92 144.99C148.36 144.82 148.82 144.735 149.3 144.735C149.92 144.735 150.465 144.855 150.935 145.095C151.405 145.325 151.77 145.65 152.03 146.07C152.3 146.48 152.435 146.96 152.435 147.51V153H151.07V151.47L151.325 151.56C151.155 151.88 150.925 152.16 150.635 152.4C150.345 152.64 150.005 152.83 149.615 152.97C149.225 153.11 148.8 153.18 148.34 153.18ZM155.348 153V144.915H156.713V146.49L156.488 146.355C156.688 145.845 157.008 145.45 157.448 145.17C157.898 144.88 158.423 144.735 159.023 144.735C159.603 144.735 160.118 144.865 160.568 145.125C161.028 145.385 161.388 145.745 161.648 146.205C161.918 146.665 162.053 147.185 162.053 147.765V153H160.643V148.215C160.643 147.765 160.563 147.385 160.403 147.075C160.243 146.765 160.013 146.525 159.713 146.355C159.423 146.175 159.088 146.085 158.708 146.085C158.328 146.085 157.988 146.175 157.688 146.355C157.398 146.525 157.168 146.77 156.998 147.09C156.828 147.4 156.743 147.775 156.743 148.215V153H155.348ZM168.654 156.3C168.084 156.3 167.554 156.21 167.064 156.03C166.584 155.85 166.169 155.6 165.819 155.28C165.479 154.97 165.219 154.605 165.039 154.185L166.344 153.585C166.484 153.965 166.749 154.285 167.139 154.545C167.539 154.815 168.039 154.95 168.639 154.95C169.099 154.95 169.514 154.86 169.884 154.68C170.264 154.51 170.564 154.25 170.784 153.9C171.004 153.56 171.114 153.145 171.114 152.655V150.84L171.369 151.11C171.089 151.66 170.684 152.08 170.154 152.37C169.634 152.66 169.059 152.805 168.429 152.805C167.669 152.805 166.989 152.63 166.389 152.28C165.789 151.92 165.319 151.435 164.979 150.825C164.639 150.205 164.469 149.52 164.469 148.77C164.469 148.01 164.639 147.325 164.979 146.715C165.319 146.105 165.784 145.625 166.374 145.275C166.974 144.915 167.654 144.735 168.414 144.735C169.044 144.735 169.614 144.88 170.124 145.17C170.644 145.45 171.059 145.84 171.369 146.34L171.159 146.715V144.915H172.524V152.655C172.524 153.355 172.359 153.98 172.029 154.53C171.699 155.08 171.239 155.51 170.649 155.82C170.069 156.14 169.404 156.3 168.654 156.3ZM168.549 151.455C169.029 151.455 169.459 151.335 169.839 151.095C170.229 150.855 170.539 150.535 170.769 150.135C170.999 149.725 171.114 149.27 171.114 148.77C171.114 148.28 170.999 147.83 170.769 147.42C170.539 147.01 170.229 146.685 169.839 146.445C169.459 146.205 169.029 146.085 168.549 146.085C168.059 146.085 167.614 146.205 167.214 146.445C166.814 146.685 166.499 147.01 166.269 147.42C166.049 147.82 165.939 148.27 165.939 148.77C165.939 149.27 166.049 149.725 166.269 150.135C166.499 150.535 166.809 150.855 167.199 151.095C167.599 151.335 168.049 151.455 168.549 151.455ZM177.806 153.18C177.276 153.18 176.806 153.085 176.396 152.895C175.996 152.695 175.681 152.425 175.451 152.085C175.221 151.735 175.106 151.335 175.106 150.885C175.106 150.455 175.196 150.07 175.376 149.73C175.566 149.38 175.856 149.085 176.246 148.845C176.646 148.605 177.146 148.435 177.746 148.335L180.746 147.84V149.01L178.061 149.46C177.541 149.55 177.161 149.715 176.921 149.955C176.691 150.195 176.576 150.49 176.576 150.84C176.576 151.17 176.706 151.445 176.966 151.665C177.236 151.885 177.571 151.995 177.971 151.995C178.481 151.995 178.921 151.89 179.291 151.68C179.671 151.46 179.966 151.165 180.176 150.795C180.396 150.425 180.506 150.015 180.506 149.565V147.51C180.506 147.07 180.341 146.715 180.011 146.445C179.691 146.165 179.266 146.025 178.736 146.025C178.276 146.025 177.866 146.145 177.506 146.385C177.156 146.615 176.896 146.925 176.726 147.315L175.511 146.685C175.661 146.315 175.901 145.985 176.231 145.695C176.561 145.395 176.946 145.16 177.386 144.99C177.826 144.82 178.286 144.735 178.766 144.735C179.386 144.735 179.931 144.855 180.401 145.095C180.871 145.325 181.236 145.65 181.496 146.07C181.766 146.48 181.901 146.96 181.901 147.51V153H180.536V151.47L180.791 151.56C180.621 151.88 180.391 152.16 180.101 152.4C179.811 152.64 179.471 152.83 179.081 152.97C178.691 153.11 178.266 153.18 177.806 153.18ZM184.814 153V144.915H186.179V146.49L185.954 146.355C186.154 145.845 186.474 145.45 186.914 145.17C187.364 144.88 187.889 144.735 188.489 144.735C189.069 144.735 189.584 144.865 190.034 145.125C190.494 145.385 190.854 145.745 191.114 146.205C191.384 146.665 191.519 147.185 191.519 147.765V153H190.109V148.215C190.109 147.765 190.029 147.385 189.869 147.075C189.709 146.765 189.479 146.525 189.179 146.355C188.889 146.175 188.554 146.085 188.174 146.085C187.794 146.085 187.454 146.175 187.154 146.355C186.864 146.525 186.634 146.77 186.464 147.09C186.294 147.4 186.209 147.775 186.209 148.215V153H184.814ZM197.608 156V144.915H198.973V146.655L198.793 146.31C199.093 145.83 199.503 145.45 200.023 145.17C200.543 144.88 201.138 144.735 201.808 144.735C202.568 144.735 203.248 144.92 203.848 145.29C204.458 145.66 204.938 146.165 205.288 146.805C205.638 147.435 205.813 148.155 205.813 148.965C205.813 149.755 205.638 150.47 205.288 151.11C204.938 151.75 204.458 152.255 203.848 152.625C203.248 152.995 202.563 153.18 201.793 153.18C201.143 153.18 200.548 153.035 200.008 152.745C199.478 152.455 199.068 152.045 198.778 151.515L199.003 151.275V156H197.608ZM201.688 151.83C202.198 151.83 202.653 151.705 203.053 151.455C203.453 151.205 203.763 150.865 203.983 150.435C204.213 149.995 204.328 149.505 204.328 148.965C204.328 148.405 204.213 147.915 203.983 147.495C203.763 147.065 203.453 146.725 203.053 146.475C202.653 146.215 202.198 146.085 201.688 146.085C201.178 146.085 200.718 146.21 200.308 146.46C199.908 146.71 199.588 147.055 199.348 147.495C199.118 147.925 199.003 148.415 199.003 148.965C199.003 149.505 199.118 149.995 199.348 150.435C199.588 150.865 199.908 151.205 200.308 151.455C200.718 151.705 201.178 151.83 201.688 151.83ZM212.113 153.18C211.333 153.18 210.638 152.995 210.028 152.625C209.418 152.255 208.938 151.75 208.588 151.11C208.238 150.46 208.063 149.735 208.063 148.935C208.063 148.125 208.233 147.405 208.573 146.775C208.923 146.145 209.393 145.65 209.983 145.29C210.583 144.92 211.253 144.735 211.993 144.735C212.593 144.735 213.123 144.845 213.583 145.065C214.053 145.275 214.448 145.565 214.768 145.935C215.098 146.295 215.348 146.71 215.518 147.18C215.698 147.64 215.787 148.12 215.787 148.62C215.787 148.73 215.778 148.855 215.758 148.995C215.748 149.125 215.733 149.25 215.713 149.37H209.083V148.17H214.903L214.243 148.71C214.333 148.19 214.283 147.725 214.093 147.315C213.903 146.905 213.623 146.58 213.253 146.34C212.883 146.1 212.463 145.98 211.993 145.98C211.523 145.98 211.093 146.1 210.703 146.34C210.313 146.58 210.008 146.925 209.788 147.375C209.578 147.815 209.493 148.34 209.533 148.95C209.493 149.54 209.583 150.06 209.803 150.51C210.033 150.95 210.353 151.295 210.763 151.545C211.183 151.785 211.638 151.905 212.128 151.905C212.668 151.905 213.123 151.78 213.493 151.53C213.863 151.28 214.163 150.96 214.393 150.57L215.563 151.17C215.403 151.54 215.153 151.88 214.812 152.19C214.483 152.49 214.088 152.73 213.628 152.91C213.178 153.09 212.673 153.18 212.113 153.18ZM218.356 153V141.645H219.751V149.43L219.181 149.295L223.471 144.915H225.256L222.151 148.17L225.466 153H223.816L220.786 148.62L221.656 148.575L219.301 151.035L219.751 150.015V153H218.356ZM231.044 153.18C230.264 153.18 229.569 152.995 228.959 152.625C228.349 152.255 227.869 151.75 227.519 151.11C227.169 150.46 226.994 149.735 226.994 148.935C226.994 148.125 227.164 147.405 227.504 146.775C227.854 146.145 228.324 145.65 228.914 145.29C229.514 144.92 230.184 144.735 230.924 144.735C231.524 144.735 232.054 144.845 232.514 145.065C232.984 145.275 233.379 145.565 233.699 145.935C234.029 146.295 234.279 146.71 234.449 147.18C234.629 147.64 234.719 148.12 234.719 148.62C234.719 148.73 234.709 148.855 234.689 148.995C234.679 149.125 234.664 149.25 234.644 149.37H228.014V148.17H233.834L233.174 148.71C233.264 148.19 233.214 147.725 233.024 147.315C232.834 146.905 232.554 146.58 232.184 146.34C231.814 146.1 231.394 145.98 230.924 145.98C230.454 145.98 230.024 146.1 229.634 146.34C229.244 146.58 228.939 146.925 228.719 147.375C228.509 147.815 228.424 148.34 228.464 148.95C228.424 149.54 228.514 150.06 228.734 150.51C228.964 150.95 229.284 151.295 229.694 151.545C230.114 151.785 230.569 151.905 231.059 151.905C231.599 151.905 232.054 151.78 232.424 151.53C232.794 151.28 233.094 150.96 233.324 150.57L234.494 151.17C234.334 151.54 234.084 151.88 233.744 152.19C233.414 152.49 233.019 152.73 232.559 152.91C232.109 153.09 231.604 153.18 231.044 153.18ZM237.288 153V144.915H238.653V146.4L238.503 146.19C238.693 145.73 238.983 145.39 239.373 145.17C239.763 144.94 240.238 144.825 240.798 144.825H241.293V146.145H240.588C240.018 146.145 239.558 146.325 239.208 146.685C238.858 147.035 238.683 147.535 238.683 148.185V153H237.288ZM241.902 156.3C241.812 156.3 241.702 156.295 241.572 156.285C241.442 156.275 241.337 156.26 241.257 156.24V154.98C241.457 155.01 241.657 155.025 241.857 155.025C242.267 155.025 242.607 154.91 242.877 154.68C243.147 154.45 243.282 154.1 243.282 153.63V144.915H244.677V153.63C244.677 154.21 244.557 154.695 244.317 155.085C244.077 155.485 243.747 155.785 243.327 155.985C242.907 156.195 242.432 156.3 241.902 156.3ZM243.282 143.625V141.825H244.677V143.625H243.282ZM249.962 153.18C249.432 153.18 248.962 153.085 248.552 152.895C248.152 152.695 247.837 152.425 247.607 152.085C247.377 151.735 247.262 151.335 247.262 150.885C247.262 150.455 247.352 150.07 247.532 149.73C247.722 149.38 248.012 149.085 248.402 148.845C248.802 148.605 249.302 148.435 249.902 148.335L252.902 147.84V149.01L250.217 149.46C249.697 149.55 249.317 149.715 249.077 149.955C248.847 150.195 248.732 150.49 248.732 150.84C248.732 151.17 248.862 151.445 249.122 151.665C249.392 151.885 249.727 151.995 250.127 151.995C250.637 151.995 251.077 151.89 251.447 151.68C251.827 151.46 252.122 151.165 252.332 150.795C252.552 150.425 252.662 150.015 252.662 149.565V147.51C252.662 147.07 252.497 146.715 252.167 146.445C251.847 146.165 251.422 146.025 250.892 146.025C250.432 146.025 250.022 146.145 249.662 146.385C249.312 146.615 249.052 146.925 248.882 147.315L247.667 146.685C247.817 146.315 248.057 145.985 248.387 145.695C248.717 145.395 249.102 145.16 249.542 144.99C249.982 144.82 250.442 144.735 250.922 144.735C251.542 144.735 252.087 144.855 252.557 145.095C253.027 145.325 253.392 145.65 253.652 146.07C253.922 146.48 254.057 146.96 254.057 147.51V153H252.692V151.47L252.947 151.56C252.777 151.88 252.547 152.16 252.257 152.4C251.967 152.64 251.627 152.83 251.237 152.97C250.847 153.11 250.422 153.18 249.962 153.18ZM259.34 153.18C258.81 153.18 258.34 153.085 257.93 152.895C257.53 152.695 257.215 152.425 256.985 152.085C256.755 151.735 256.64 151.335 256.64 150.885C256.64 150.455 256.73 150.07 256.91 149.73C257.1 149.38 257.39 149.085 257.78 148.845C258.18 148.605 258.68 148.435 259.28 148.335L262.28 147.84V149.01L259.595 149.46C259.075 149.55 258.695 149.715 258.455 149.955C258.225 150.195 258.11 150.49 258.11 150.84C258.11 151.17 258.24 151.445 258.5 151.665C258.77 151.885 259.105 151.995 259.505 151.995C260.015 151.995 260.455 151.89 260.825 151.68C261.205 151.46 261.5 151.165 261.71 150.795C261.93 150.425 262.04 150.015 262.04 149.565V147.51C262.04 147.07 261.875 146.715 261.545 146.445C261.225 146.165 260.8 146.025 260.27 146.025C259.81 146.025 259.4 146.145 259.04 146.385C258.69 146.615 258.43 146.925 258.26 147.315L257.045 146.685C257.195 146.315 257.435 145.985 257.765 145.695C258.095 145.395 258.48 145.16 258.92 144.99C259.36 144.82 259.82 144.735 260.3 144.735C260.92 144.735 261.465 144.855 261.935 145.095C262.405 145.325 262.77 145.65 263.03 146.07C263.3 146.48 263.435 146.96 263.435 147.51V153H262.07V151.47L262.325 151.56C262.155 151.88 261.925 152.16 261.635 152.4C261.345 152.64 261.005 152.83 260.615 152.97C260.225 153.11 259.8 153.18 259.34 153.18ZM266.348 153V144.915H267.713V146.49L267.488 146.355C267.688 145.845 268.008 145.45 268.448 145.17C268.898 144.88 269.423 144.735 270.023 144.735C270.603 144.735 271.118 144.865 271.568 145.125C272.028 145.385 272.388 145.745 272.648 146.205C272.918 146.665 273.053 147.185 273.053 147.765V153H271.643V148.215C271.643 147.765 271.563 147.385 271.403 147.075C271.243 146.765 271.013 146.525 270.713 146.355C270.423 146.175 270.088 146.085 269.708 146.085C269.328 146.085 268.988 146.175 268.688 146.355C268.398 146.525 268.168 146.77 267.998 147.09C267.828 147.4 267.743 147.775 267.743 148.215V153H266.348Z" fill="#1E1E1E"/>
</svg>
