<svg width="431" height="35" viewBox="0 0 431 35" fill="none" xmlns="http://www.w3.org/2000/svg">
<path d="M3.46101 14.7616C5.85261 14.0627 9.10448 13.6669 11.5475 13.5257C12.3165 13.4797 12.0115 13.9674 12.556 13.9529C13.59 13.9301 14.5159 13.5502 15.5511 13.5634C15.9009 13.5687 15.5987 14.3056 15.9636 14.2959C17.9151 14.2469 19.7162 13.756 21.6707 13.5626C31.3465 12.6053 40.7289 11.3697 50.4538 10.211C51.7112 10.0607 53.0249 9.9804 54.438 9.88285C56.6275 9.73532 58.8906 9.57686 60.8996 9.13058C61.278 9.04559 60.9682 8.49361 61.0343 8.43529C62.0796 7.53843 61.8623 8.77054 62.6389 8.82283C65.7082 9.02952 69.0321 8.64634 71.8754 8.05837C73.0858 7.80668 71.7145 6.79858 73.0245 7.29698C73.1154 7.33039 72.8832 7.99034 73.2263 8.01483C74.0077 8.06842 75.434 7.78059 76.0299 7.75858C77.1853 7.71828 77.364 7.6906 78.4404 7.56999C79.9194 7.40999 81.7045 7.51673 83.2553 7.19923C83.5884 7.12936 83.0703 6.54176 83.5961 6.37274C84.1273 6.20304 85.5492 6.10026 86.0467 6.19831C86.5439 6.29623 86.394 6.82012 86.4916 6.92577C87.3051 7.81837 88.7886 6.30008 89.0026 6.24408C92.806 5.26829 96.1971 5.70439 99.8222 5.36009C102.575 5.09715 105.501 4.58004 108.124 4.39143C111.257 4.16862 113.926 4.30234 116.959 4.01028C117.279 3.98034 116.846 3.25644 117.237 3.21836C121.391 2.81452 125.532 2.60803 129.709 2.85181C130.127 2.87702 129.635 3.57231 130.055 3.63707C132.643 4.01622 136.712 5.08791 138.069 2.12418C139.322 2.13549 140.752 2.14147 142.06 2.33288C142.555 2.40668 143.03 2.50791 143.465 2.64728C144.478 2.97085 143.548 3.74022 144.754 3.37158C145.027 3.28938 144.637 2.67577 145.048 2.60028C146.771 2.28356 148.691 2.39976 150.387 1.99786C150.734 1.91455 150.614 1.35292 150.708 1.24666C151.506 0.384553 152.957 1.68972 153.26 1.77654C155.591 2.42003 157.258 2.06365 159.405 2.00212C159.904 1.98827 159.287 1.24963 159.766 1.20905C162.242 1.00915 164.82 0.987455 167.263 1.24868C167.806 1.30865 167.329 1.97195 167.59 2.03378C168.738 2.29874 168.953 1.06762 170.054 1.2995C170.286 1.34686 170.173 1.90525 170.217 1.96492C170.902 2.90161 171.434 1.53056 171.602 1.49581C173.73 1.0263 175.137 2.40401 177.197 2.15133C177.443 2.11973 176.868 1.43195 177.562 1.38605C182.188 1.07621 187.091 1.16635 191.683 1.64755C192.394 1.72149 191.897 2.25761 191.943 2.32182C192.691 3.32468 193.143 1.95597 193.374 1.90083C195.198 1.50125 196.931 2.61638 198.15 0.977566C205.925 1.42766 213.63 0.446628 221.344 1.86284C221.441 1.87921 221.27 2.55029 221.464 2.58006C223.812 2.94612 223.37 1.90652 224.908 0.6271C225.292 0.305845 226.506 1.84067 226.607 1.95323C226.993 2.36776 226.597 3.36595 226.726 3.44609C227.793 4.07543 227.589 0.777922 229.046 0.77433C229.091 0.779756 228.902 1.38706 229.023 1.44722C229.4 1.63609 229.771 1.39438 230.136 1.6029C230.964 2.08551 231.275 3.68754 232.556 2.75456C232.717 2.63354 232.476 0.762706 233.743 0.85128C234.275 0.887976 236.503 0.857933 237.16 0.980518C237.798 1.10269 237.358 1.70475 237.404 1.73093C239.111 2.53131 238.449 2.86047 239.305 4.04261C240.168 5.22054 239.934 2.41586 240.285 2.10387C240.64 1.79274 241.864 2.45451 242.187 2.68444C242.497 2.91433 242.108 3.29591 242.384 3.42639C244.19 4.27931 243.182 2.03776 243.775 1.5952C244.699 0.913731 245.494 1.55829 246.258 2.15C246.692 2.46798 247.122 2.77088 247.571 2.84512C247.917 2.90253 247.638 2.42696 247.946 2.38483C249.156 2.22453 249.918 2.87978 251.313 2.29943C251.555 2.20494 252.681 0.967253 253.411 1.89468C253.515 2.02838 253.21 2.54254 253.739 2.66573C254.516 2.85022 255.937 2.98545 256.767 2.82724C257.38 2.71009 256.686 1.84337 257.475 2.12323C257.824 2.2483 257.164 2.73539 257.82 2.92876C258.456 3.12126 260.133 3.13565 260.751 3.13403C261.393 3.13215 261.058 2.47603 261.111 2.43368C261.435 2.1913 262.634 1.91092 262.755 1.91541C268.155 1.9889 273.118 3.30174 278.388 3.35163C278.803 3.35632 278.581 2.65402 278.645 2.64771C280.081 2.47388 278.821 4.19578 279.757 4.88055C279.727 3.48746 280.288 3.78464 281.288 3.7136C281.769 3.67792 281.553 3.12198 281.601 3.07075C282.373 2.31538 282.776 3.40249 282.885 3.62691C283.293 4.45295 283.867 3.55586 284.146 4.10579C284.427 4.65165 283.64 5.38017 284.593 5.43343C284.858 5.00835 284.398 3.90237 284.806 3.54754C284.857 3.50335 284.923 3.47082 285.004 3.45277C287.801 2.8271 292.831 4.25615 295.007 4.56431C297.184 4.86728 297.897 4.84526 299.153 5.14589C301.418 5.69225 300.671 4.65311 302.142 4.35673C303.617 4.06216 302.684 6.34758 302.838 6.87447C302.989 7.40087 303.262 6.90223 303.484 7.20579C303.705 7.5092 303.131 7.79863 303.706 7.96256C304.284 8.12644 305.983 7.39113 306.245 6.88332C306.801 5.80752 306.199 4.55606 307.711 5.12996C307.799 5.16376 307.444 5.7528 307.781 5.85083C310.451 6.6082 313.273 6.93145 315.949 7.61987C316.315 7.71532 315.915 8.3718 316.127 8.43512C318.354 9.09571 317.654 7.85469 319.015 6.67986C318.577 8.3718 319.166 9.49048 320.893 9.65191C321.029 9.66458 321.145 9.66234 321.245 9.64786C321.905 9.55225 321.905 8.9202 322.529 8.51499C322.747 8.37431 323.427 8.96181 323.595 8.62319C324.151 7.51689 323.594 6.14925 325.331 6.85858C325.407 6.89171 325.088 7.49431 325.353 7.56265C327.07 8.01174 327.424 6.83443 329.331 6.92835C330.828 7.00263 333.346 8.09186 334.997 8.44313C334.697 10.3604 336.332 10.1391 337.156 8.90292C338.23 9.10766 339.409 9.19444 340.429 9.52017C340.779 9.6316 340.467 10.1561 340.504 10.2224C341.075 11.2611 341.717 10.0341 341.958 10.0149C343.921 9.89913 345.504 10.581 347.262 10.629C347.838 10.6459 348.42 10.5983 349.036 10.4406C349.127 10.4173 349.445 9.09853 349.969 10.1592C350.002 10.2319 349.124 10.7356 350.255 10.9314C351.401 11.1288 353.443 12.1401 355.113 11.7585C355.525 11.6673 356.652 10.7305 357.305 11.6981C357.39 11.8289 357.218 12.1933 357.333 12.429C357.699 13.1801 358.191 11.8788 358.569 13.1119C358.946 14.3452 359.977 15.3904 361.688 14.876C361.743 14.862 362.3 13.8623 362.795 13.9668C363.592 14.1354 364.669 14.5583 365.505 14.7058C365.902 14.7752 365.77 14.0691 365.841 14.0697C368.585 14.1962 370.365 15.1568 373.167 15.963C373.686 16.1133 375.354 15.5028 376.234 16.3996C377.205 17.3794 375.458 20.4186 378.208 20.1014C379.287 19.9787 381.115 16.3901 382.634 18.177C382.702 18.2566 382.77 18.3469 382.837 18.4489C386.534 18.4103 389.58 20.2034 393.275 20.4498C393.44 20.461 394.264 19.4842 394.637 19.6107C395.187 19.7999 395.332 20.4138 395.715 20.5688C396.112 20.7335 396.51 20.8606 396.909 20.9683C398.121 21.2962 399.343 21.5251 400.471 22.0913C401.038 22.3777 400.602 22.7961 401.267 23.1436C401.927 23.4923 402.708 23.0483 403.459 23.8279C404.026 24.4195 404.012 26.1176 404.842 26.7424C405.559 25.4291 406.17 25.7816 407.462 25.9904C407.71 26.0294 407.714 25.449 407.844 25.4434C408.374 25.4092 408.562 25.9837 409.082 25.9109C409.207 25.8938 409.434 25.436 409.548 25.3953C410.522 25.0336 411.112 26.5587 411.232 26.8249C411.661 27.8361 412.262 27.3601 412.717 27.8509C413.188 28.3422 412.194 28.3779 412.814 28.7954C412.836 28.8101 412.858 28.8247 412.881 28.8392C412.884 28.8404 412.893 28.8432 412.896 28.8442C414.198 29.616 415.992 30.1261 417.38 30.637C417.947 30.8422 417.784 30.063 417.871 30.0774C419.109 30.3284 420.041 31.4432 421.162 30.4097C420.752 34.0016 421.988 30.3543 423.414 31.633C423.523 31.7338 423.122 33.3556 422.526 33.3953C421.934 33.4356 421.347 32.6619 420.516 32.7596C420.318 32.7808 418.838 33.8942 418.679 33.937C417.428 34.2662 418.123 31.8823 418.113 31.7336C417.993 30.1281 416.275 31.3063 415.935 31.3143C414.506 31.3392 413.487 30.7503 412.338 30.6446C412.322 30.6388 412.272 30.6236 412.256 30.6173C412.135 30.5993 412.012 30.5849 411.888 30.575C410.978 30.4974 410.287 31.9665 409.643 31.6457C407.527 30.5538 407.884 28.1768 405.159 29.0086C404.581 29.184 404.149 30.9601 403.401 29.006C403.353 28.8829 402.918 27.2217 401.974 27.6491C401.855 27.7031 401.623 28.1659 401.509 28.1565C400.745 28.086 400.509 27.5061 399.743 27.3553C398.978 27.2052 398.062 27.1055 397.398 26.6359C396.999 26.3523 396.784 25.2352 396.646 24.9338C396.456 24.4976 396.093 24.4934 395.784 24.4907C395.436 24.4734 395.129 24.4477 395.038 23.9924C394.847 23.0669 396.081 22.1305 395.079 21.2639C394.645 22.5377 394.148 23.8295 393.691 25.1046C391.263 24.3229 388.963 23.2775 386.47 22.8406C386.162 22.7884 386.334 23.5593 386.003 23.5229C384.621 23.3718 383.503 22.6727 382.043 22.6762C382.033 22.6761 382.023 22.676 382.012 22.6759C380.727 22.6702 379.231 23.2152 377.896 23.1854C377.356 21.5363 375.377 21.7127 374.043 21.3149C373.58 21.1777 373.688 20.7797 373.375 20.5834C372.204 19.8537 372.539 21.3026 372.149 21.4457C370.488 22.055 370.953 19.008 369.198 18.7461C369.104 18.7307 367.673 20.1263 367.498 20.1972C366.393 20.6647 367.443 19.6051 366.853 19.3694C365.773 18.9394 365.067 18.4083 363.669 18.6427C363.257 18.7124 362.167 19.5558 361.561 18.6473C361.482 18.5283 361.629 18.0034 361.556 17.9584C360.213 17.1882 359.897 18.8652 358.991 19.2986C358.089 19.7327 357.031 18.3719 356.819 17.9957C356.291 17.0245 357.393 17.7068 357.444 17.6284C358.036 16.6859 357.077 16.7101 356.396 16.5169C356.552 14.8497 355.54 14.7961 355.674 16.3217C355.689 16.4882 356.268 16.4196 356.396 16.5169C355.521 18.0399 354.42 18.0838 353.454 16.3958C352.996 15.6047 353.643 14.8487 351.894 14.9127C351.091 14.9413 351.245 16.1238 350.521 16.3421C349.282 16.7123 347.946 16.0776 346.641 15.7176C346.185 15.593 345.745 15.5002 345.318 15.4901C344.714 15.476 345.216 16.174 344.801 16.1858C343.695 16.218 342.802 15.625 341.688 15.7207C341.586 15.7302 341.739 16.4157 341.401 16.379C338.834 16.1131 336.679 15.3838 334.042 15.0059C332.767 14.8231 330.451 14.8728 329.155 14.6307C326.91 14.2105 324.251 12.9299 322.315 12.9807C321.203 13.0075 321.241 13.5464 320.876 13.9472C320.825 14 320.767 14.0503 320.697 14.0969C319.536 14.8721 317.774 13.1414 317.544 12.8764C317.536 12.8678 318.669 12.8175 318.104 12.4248C317.821 11.69 317.558 12.8746 317.544 12.8764C317.39 12.7061 315.183 12.3421 314.728 12.4226C314.482 12.4674 314.554 13.1024 314.427 13.114C311.401 13.3748 308.424 13.2225 305.468 12.625C305.417 12.6071 305.568 11.92 305.446 11.8865C303.75 11.3998 302.556 12.1378 301.086 12.501C299.615 12.8642 298.509 12.5863 297.784 11.3118C296.699 11.3595 295.213 10.6893 294.358 10.29C293.503 9.89045 293.261 11.2355 293.181 11.2554C290.689 11.9035 289.363 11.0138 286.868 10.7113C286.247 10.6352 285.301 10.6089 284.355 10.6148C283.44 10.6165 282.537 10.6297 281.898 10.6506C280.836 10.6871 280.242 10.3173 279.281 10.4443C279.151 10.461 279.232 11.0753 279.191 11.0953C278.086 11.7337 278.706 10.2982 278.51 10.0172C277.806 8.99742 277.349 8.44667 275.981 8.80324C275.668 8.88476 274.628 10.9512 274.062 11.0409C273.338 11.1543 273.635 10.4066 272.878 10.5474C272.812 10.5587 272.803 11.0301 272.325 10.9822C270.166 10.7698 267.782 10.3907 265.491 10.3586C265.174 10.3523 265.556 11.1137 265.095 11.117C262.978 11.1336 260.66 11.0456 258.587 10.6527C258.088 10.5539 258.413 10.0369 258.307 9.87921C257.658 8.92493 256.635 10.2735 256.491 10.2971C252.803 10.8715 249.948 9.69729 246.214 10.1445C246.102 10.1583 245.99 10.1736 245.875 10.1905C245.683 10.2239 243.994 11.6807 243.3 10.4213C243.252 10.3375 242.541 9.04885 241.887 9.92555C241.847 9.9804 242.3 10.6439 241.505 10.5736C240.748 10.5036 239.441 10.9418 238.387 10.2123C238.052 9.98252 237.236 8.69833 236.214 9.71936C236.151 9.79054 234.584 12.1006 234.01 10.5056C233.918 10.2431 234.011 8.55516 232.805 9.42051C232.573 9.58831 232.994 9.96468 232.383 10.1999C231.435 10.5624 230.204 10.1114 229.047 10.8651C228.845 10.9985 227.981 12.1456 227.303 11.2777C227.196 11.1418 227.398 10.5778 227.037 10.5156C225.301 10.2173 223.511 10.6004 221.749 10.2185C221.132 10.0843 221.443 9.17193 220.797 8.93093C220.152 8.68998 218.831 8.46238 218.167 8.88268C217.495 9.30319 218.242 10.7504 217.229 10.8728C212.825 11.4053 208.454 10.593 204.051 10.5207C203.397 10.51 203.946 11.0228 202.981 11.0445C199.439 11.1248 193.327 11.7065 190.235 10.6613C187.75 9.82331 190.845 9.09222 188.95 8.76795C188.037 8.61357 187.09 10.3206 186.871 10.3782C184.734 10.9611 183.237 10.2457 181.31 10.5194C180.914 10.5761 181.319 11.251 180.982 11.2918C179.829 11.4372 178.604 11.1615 177.5 11.2452C177.006 11.2843 177.11 11.8043 176.653 11.7757C175.56 11.7133 174.588 11.5195 173.511 11.0593C173.412 11.0173 174.049 10.3496 173.24 10.3477C171.932 10.3466 170.293 9.91072 168.804 10.4554C168.363 10.6191 168.382 11.813 167.398 11.0188C167.192 10.853 167.403 9.41145 166.324 10.6856C166.142 10.8972 164.324 12.6287 163.367 11.5841C163.114 11.309 162.453 10.1578 161.923 10.3611C161.851 10.393 162.165 11.0237 161.723 11.102C160.168 11.3665 158.519 11.3593 156.923 11.6228C156.497 11.6945 157.161 12.3327 156.525 12.4184C154.768 12.6554 152.573 12.578 150.843 12.4469C150.207 12.3972 150.62 11.8285 150.571 11.7708C149.787 10.8315 149.411 12.1637 149.166 12.2516C147.65 12.7803 146.473 12.2189 145.061 12.4525C144.674 12.5152 144.981 13.127 144.907 13.1867C144.131 13.7719 144.673 12.6185 144.158 12.5203C143.646 12.4213 143.117 12.3743 142.584 12.3621C141.607 12.3406 140.619 12.4329 139.698 12.5352C139.174 12.5945 139.805 13.287 139.334 13.3319C136.521 13.6129 133.619 13.7157 130.844 13.4906C130.324 13.4468 130.613 12.8681 130.497 12.7475C129.701 11.9025 128.694 13.1897 128.45 13.3223C127.345 13.9264 126.877 13.4623 125.881 13.6225C121.006 14.4133 114.951 14.5467 110.314 14.7357C104.271 14.9847 99.5518 14.8897 93.841 15.6073C93.4799 15.6523 93.9212 16.3551 93.6095 16.4035C89.576 16.996 85.5586 17.1414 81.5356 17.8251C81.2066 17.8798 81.7646 18.5248 81.2401 18.6362C80.157 18.8704 78.7782 18.9955 77.6389 18.9067C77.0857 18.8644 77.7374 18.1758 77.1821 18.1456C75.8983 18.0728 74.5252 18.1922 73.2503 18.4671C72.701 18.5866 73.6289 19.1963 72.9091 19.2958C68.0384 19.9857 63.2669 20.7591 58.2147 20.5508C57.87 20.5362 57.3536 19.1299 56.6774 19.5137C56.6827 19.9242 56.7555 20.3972 56.7955 20.8309C56.5571 20.8741 56.3195 20.9164 56.0829 20.9579C49.1984 22.1617 42.3519 22.7353 35.4542 23.7773C35.1481 23.8238 35.7998 24.5049 35.2093 24.5987C31.8453 25.1341 28.6159 25.89 25.0555 25.7179C24.7018 25.7021 24.6523 24.3237 23.6834 24.7008C23.4965 24.7711 22.0448 25.2086 21.6913 25.5721C21.6455 25.6255 22.0341 26.2049 21.545 26.3096C18.7261 26.9029 15.7779 27.287 12.878 27.4345C12.4172 27.4558 12.7691 26.6986 12.441 26.7078C10.0952 26.7819 7.68915 27.7749 5.41034 27.6125C3.87302 27.5055 4.19014 26.2415 3.1652 25.2762C3.03633 25.1361 2.1032 25.3113 1.93496 24.6607C1.45406 23.0351 1.48372 21.133 0.920722 19.4113C0.820224 19.0335 -0.404947 19.7409 0.166067 18.6486C0.196754 18.576 1.07467 18.0645 1.2202 17.7088C1.33718 17.4588 0.900011 16.8529 1.17425 16.5063C1.41972 16.1664 1.89546 16.6517 2.36277 16.2167C2.81008 15.7823 2.44272 15.0627 3.46101 14.7616ZM290.499 8.51659C289.73 7.79947 289.422 10.1753 290.351 9.67542C290.396 9.64846 290.538 8.55195 290.499 8.51659ZM389.385 21.5699C388.597 20.299 387.562 21.6685 388.101 22.6201C388.623 23.5704 389.618 21.9548 389.385 21.5699ZM399.911 24.1438C399.121 22.8762 397.626 25.9281 399.038 25.8064C399.12 25.801 399.956 24.2174 399.911 24.1438ZM6.70943 24.2143C6.68647 24.1863 6.02251 24.2874 6.01874 24.3205C5.82011 25.1352 7.13992 24.9339 6.70943 24.2143ZM410.267 28.3086C410.086 27.7312 408.82 27.7243 409.031 28.4524C409.204 29.0439 410.504 29.037 410.267 28.3086ZM247.597 4.0133C247.585 3.97753 247.104 3.94227 247.112 4.1439C247.142 4.7932 247.81 4.61447 247.597 4.0133ZM428.343 34.4734C425.493 33.6792 424.932 30.4498 427.577 31.5984C428.071 31.796 426.244 32.1491 426.82 32.5769C427.933 33.372 429.109 31.8214 430.184 32.9786C430.392 33.196 428.517 34.5334 428.337 34.4762C428.339 34.4753 428.341 34.4744 428.343 34.4734ZM290.255 5.61377C290.241 5.58079 289.581 5.49861 289.562 5.52878C289.145 6.2579 290.473 6.42354 290.255 5.61377ZM219.566 2.52605C219.522 2.45875 217.988 2.40442 217.938 2.46696C217.142 3.71373 220.254 3.8271 219.566 2.52605ZM335.016 8.49805C335.84 7.84081 336.713 7.87153 337.152 8.90149C336.446 8.75187 335.728 8.64426 335.016 8.49805Z" fill="#A11692"/>
</svg>
