<svg width="60" height="61" viewBox="0 0 60 61" fill="none" xmlns="http://www.w3.org/2000/svg">
<rect x="0.5" y="0.540527" width="59" height="59" rx="29.5" stroke="#A11692"/>
<g clip-path="url(#clip0_37_247)">
<path fill-rule="evenodd" clip-rule="evenodd" d="M47 29.2073C47 29.4891 46.8881 29.7594 46.6888 29.9586C46.4895 30.1579 46.2193 30.2698 45.9375 30.2698H41.3182C41.0364 30.2698 40.7662 30.1579 40.5669 29.9586C40.3677 29.7594 40.2557 29.4891 40.2557 29.2073C40.2557 28.9255 40.3677 28.6553 40.5669 28.456C40.7662 28.2568 41.0364 28.1448 41.3182 28.1448H45.9375C46.2193 28.1448 46.4895 28.2568 46.6888 28.456C46.8881 28.6553 47 28.9255 47 29.2073ZM39.2159 22.6311L43.2188 20.3202C43.4625 20.1841 43.75 20.1493 44.0191 20.2235C44.2882 20.2977 44.5173 20.4748 44.6569 20.7165C44.7965 20.9583 44.8354 21.2452 44.7651 21.5154C44.6948 21.7855 44.521 22.0172 44.2813 22.1602L40.2784 24.4712C40.0345 24.6087 39.7462 24.6445 39.4762 24.5707C39.2061 24.4969 38.9761 24.3195 38.8361 24.0771C38.6961 23.8346 38.6575 23.5467 38.7286 23.2759C38.7997 23.0051 38.9748 22.7734 39.2159 22.631V22.6311ZM38.7929 16.0516C38.9278 15.808 38.9618 15.5211 38.8873 15.2527C38.8129 14.9843 38.636 14.7559 38.3948 14.6166C38.1536 14.4773 37.8674 14.4383 37.5977 14.508C37.328 14.5777 37.0965 14.7504 36.9529 14.9891L34.642 18.9914C34.5722 19.1123 34.527 19.2457 34.5088 19.3841C34.4906 19.5225 34.4998 19.6631 34.5359 19.7979C34.5721 19.9327 34.6344 20.059 34.7194 20.1698C34.8043 20.2805 34.9103 20.3734 35.0312 20.4431C35.152 20.5129 35.2855 20.5582 35.4238 20.5764C35.5622 20.5946 35.7028 20.5853 35.8376 20.5492C35.9724 20.513 36.0988 20.4507 36.2095 20.3657C36.3202 20.2808 36.4131 20.1748 36.4828 20.0539L38.7929 16.0516ZM44.8172 37.8116C44.6762 38.0555 44.4441 38.2335 44.1719 38.3065C43.8997 38.3795 43.6097 38.3414 43.3656 38.2007L39.3613 35.8884C39.121 35.7457 38.9466 35.514 38.8759 35.2436C38.8052 34.9731 38.844 34.6857 38.9838 34.4437C39.1235 34.2016 39.3531 34.0244 39.6226 33.9504C39.8922 33.8764 40.18 33.9116 40.4238 34.0483L44.4281 36.3599C44.672 36.501 44.85 36.7331 44.9229 37.0053C44.9958 37.2775 44.9578 37.5675 44.817 37.8116H44.8172ZM20.9335 34.2568C21.0033 34.3777 21.0487 34.511 21.0669 34.6494C21.0852 34.7877 21.0761 34.9283 21.04 35.0631C21.004 35.1979 20.9417 35.3243 20.8568 35.435C20.7719 35.5457 20.666 35.6387 20.5452 35.7085L16.5389 38.0214C16.4179 38.0938 16.2838 38.1415 16.1443 38.1616C16.0047 38.1817 15.8626 38.1738 15.7261 38.1384C15.5897 38.1031 15.4616 38.0409 15.3494 37.9555C15.2372 37.8702 15.1431 37.7633 15.0726 37.6413C15.0021 37.5192 14.9567 37.3843 14.9388 37.2444C14.921 37.1046 14.9311 36.9626 14.9687 36.8267C15.0063 36.6909 15.0705 36.5638 15.1577 36.453C15.2448 36.3422 15.3532 36.2499 15.4764 36.1814L19.4827 33.8684C19.6035 33.7986 19.7368 33.7533 19.8751 33.735C20.0133 33.7168 20.1538 33.726 20.2886 33.762C20.4233 33.7981 20.5496 33.8604 20.6602 33.9453C20.7709 34.0302 20.8638 34.1361 20.9335 34.2568ZM18.6823 30.1349H14.0625C13.7807 30.1349 13.5105 30.023 13.3112 29.8237C13.1119 29.6245 13 29.3542 13 29.0724C13 28.7907 13.1119 28.5204 13.3112 28.3211C13.5105 28.1219 13.7807 28.0099 14.0625 28.0099H18.6824C18.9642 28.0099 19.2344 28.1219 19.4337 28.3211C19.6329 28.5204 19.7449 28.7907 19.7449 29.0724C19.7449 29.3542 19.6329 29.6245 19.4337 29.8237C19.2344 30.023 18.9641 30.1349 18.6823 30.1349ZM21.2073 24.0243C21.1376 24.1453 21.0447 24.2514 20.934 24.3364C20.8233 24.4215 20.6969 24.4839 20.562 24.52C20.4271 24.5562 20.2865 24.5654 20.148 24.5471C20.0096 24.5288 19.8762 24.4834 19.7553 24.4134L15.7524 22.1025C15.5083 21.9616 15.3302 21.7295 15.2572 21.4573C15.1842 21.185 15.2224 20.895 15.3633 20.6509C15.5042 20.4068 15.7363 20.2286 16.0085 20.1557C16.2807 20.0827 16.5708 20.1208 16.8149 20.2617L20.8181 22.5733C21.0621 22.7141 21.2402 22.9461 21.3132 23.2182C21.3862 23.4903 21.348 23.7803 21.2073 24.0243ZM23.5327 20.0453C23.6012 20.1685 23.6936 20.2768 23.8044 20.364C23.9152 20.4512 24.0422 20.5154 24.1781 20.553C24.3139 20.5906 24.4559 20.6007 24.5958 20.5829C24.7356 20.565 24.8705 20.5195 24.9926 20.449C25.1147 20.3785 25.2215 20.2844 25.3069 20.1723C25.3922 20.0601 25.4544 19.932 25.4898 19.7955C25.5251 19.6591 25.533 19.5169 25.5129 19.3774C25.4928 19.2379 25.4451 19.1037 25.3727 18.9828L23.0617 14.9806C22.9925 14.8588 22.8998 14.7519 22.7891 14.6661C22.6783 14.5802 22.5517 14.5171 22.4165 14.4804C22.2812 14.4437 22.1401 14.4341 22.0011 14.4521C21.8622 14.4702 21.7282 14.5156 21.6068 14.5856C21.4855 14.6557 21.3792 14.7491 21.2941 14.8604C21.209 14.9717 21.1467 15.0987 21.1109 15.2342C21.0751 15.3697 21.0664 15.5109 21.0854 15.6497C21.1044 15.7886 21.1506 15.9223 21.2215 16.0431L23.5324 20.0454L23.5327 20.0453ZM29.9994 19.1494C29.7177 19.1492 29.4475 19.0372 29.2483 18.8379C29.0491 18.6387 28.9371 18.3686 28.9369 18.0869V13.467C28.9369 13.1852 29.0488 12.915 29.2481 12.7157C29.4474 12.5165 29.7176 12.4045 29.9994 12.4045C30.2812 12.4045 30.5514 12.5165 30.7507 12.7157C30.95 12.915 31.0619 13.1852 31.0619 13.467V18.0869C31.0619 18.3687 30.95 18.6389 30.7507 18.8382C30.5514 19.0374 30.2812 19.1494 29.9994 19.1494ZM33.2969 39.2173V40.252H26.7017V39.2173H33.2969ZM36.3346 23.1643C34.6514 21.4899 32.3738 20.55 29.9997 20.55C27.6256 20.55 25.348 21.4899 23.6648 23.1643C22.8432 23.9841 22.1962 24.9619 21.7628 26.0386C21.3295 27.1153 21.1187 28.2687 21.1433 29.429C21.1792 31.7021 22.0545 33.9554 23.6083 35.7729L24.1197 36.372C24.4225 36.712 24.5856 37.1538 24.5764 37.609V40.3257C24.5768 40.7137 24.6871 41.0937 24.8945 41.4216C25.102 41.7495 25.398 42.0119 25.7485 42.1784V42.8379C25.7493 43.569 26.04 44.2698 26.557 44.7867C27.0739 45.3036 27.7748 45.5942 28.5059 45.5949H31.5818C32.3129 45.5942 33.0139 45.3036 33.531 44.7867C34.048 44.2698 34.3389 43.5689 34.3398 42.8378V42.1332C34.6668 41.9579 34.9401 41.6972 35.1307 41.3789C35.3213 41.0606 35.4221 40.6966 35.4223 40.3256V37.609C35.4134 37.1538 35.5765 36.712 35.879 36.3719L36.391 35.7728C37.9445 33.9553 38.8195 31.7021 38.8554 29.429C38.8804 28.2686 38.6699 27.1152 38.2366 26.0385C37.8034 24.9618 37.1564 23.984 36.3348 23.1643L36.3346 23.1643ZM32.8733 26.6248C32.3632 26.1157 31.726 25.7526 31.0279 25.5734C30.8927 25.5387 30.7657 25.4777 30.6541 25.3939C30.5425 25.3101 30.4486 25.2051 30.3775 25.085C30.2341 24.8424 30.1929 24.5527 30.263 24.2797C30.3332 24.0067 30.5089 23.7728 30.7515 23.6293C30.9941 23.4859 31.2838 23.4447 31.5568 23.5148C32.6235 23.789 33.5972 24.3442 34.3764 25.1225C35.6135 26.3597 36.2138 28.0259 36.0651 29.8122C36.0431 30.0777 35.9222 30.3251 35.7264 30.5057C35.5306 30.6862 35.274 30.7866 35.0077 30.7869C34.978 30.7869 34.9487 30.7856 34.919 30.7836C34.7799 30.7722 34.6443 30.7334 34.5202 30.6696C34.3961 30.6058 34.2857 30.5181 34.1955 30.4116C34.1052 30.3051 34.0368 30.1818 33.9942 30.0489C33.9516 29.916 33.9356 29.7759 33.9472 29.6368C34.0149 28.8207 33.884 27.6355 32.8735 26.6248H32.8733Z" fill="#A11692"/>
</g>
<defs>
<clipPath id="clip0_37_247">
<rect width="34" height="34" fill="white" transform="translate(13 12)"/>
</clipPath>
</defs>
</svg>
