<svg width="60" height="61" viewBox="0 0 60 61" fill="none" xmlns="http://www.w3.org/2000/svg">
<rect x="0.5" y="0.540527" width="59" height="59" rx="29.5" stroke="#A11692"/>
<path d="M39.459 12.8999H20.541C18.3285 12.8999 16.5361 14.697 16.5361 16.9001V43.0997C16.5361 45.3075 18.3285 47.0999 20.541 47.0999H39.4637C41.6715 47.0999 43.4639 45.3028 43.4639 43.0997V16.9001C43.4592 14.697 41.6669 12.8999 39.459 12.8999ZM23.799 27.4537C25.204 27.4537 26.3429 28.5926 26.3429 30.0022C26.3429 31.4119 25.204 32.5508 23.799 32.5508C22.3894 32.5508 21.2505 31.4119 21.2505 30.0022C21.2505 28.5926 22.3894 27.4537 23.799 27.4537ZM21.2505 19.8127C21.2505 18.4031 22.3894 17.2642 23.799 17.2642C25.204 17.2642 26.3429 18.4031 26.3429 19.8127C26.3429 21.2224 25.204 22.3613 23.799 22.3613C22.3894 22.3613 21.2505 21.2224 21.2505 19.8127ZM23.799 37.6432C25.204 37.6432 26.3429 38.7821 26.3429 40.1918C26.3429 41.6014 25.204 42.7403 23.799 42.7403C22.3894 42.7403 21.2505 41.6014 21.2505 40.1918C21.2505 38.7821 22.3894 37.6432 23.799 37.6432ZM30.0041 39.0995H37.662C38.2641 39.0995 38.7496 39.585 38.7496 40.1871C38.7496 40.7892 38.2595 41.284 37.6573 41.284H30.0041C29.402 41.284 28.9166 40.7939 28.9166 40.1918C28.9166 39.5896 29.402 39.0995 30.0041 39.0995ZM28.9119 30.0022C28.9119 29.4001 29.3973 28.9147 29.9995 28.9147H37.6573C38.2595 28.9147 38.7496 29.4001 38.7496 30.0022C38.7496 30.6044 38.2595 31.0898 37.6573 31.0898H30.0041C29.402 31.0898 28.9119 30.6044 28.9119 30.0022ZM37.6573 20.905H30.0041C29.402 20.905 28.9166 20.4195 28.9166 19.8174C28.9166 19.2153 29.402 18.7205 30.0041 18.7205H37.662C38.2641 18.7205 38.7496 19.2106 38.7496 19.8127C38.7496 20.4148 38.2595 20.905 37.6573 20.905Z" fill="#A11692"/>
</svg>
