<svg width="60" height="61" viewBox="0 0 60 61" fill="none" xmlns="http://www.w3.org/2000/svg">
<rect x="0.5" y="0.540527" width="59" height="59" rx="29.5" stroke="#A11692"/>
<g clip-path="url(#clip0_14_192)">
<path d="M45.0625 41.5794H44.0008V25.5337C44.0008 25.0159 43.5811 24.5962 43.0633 24.5962H39.3131C38.7954 24.5962 38.3756 25.0159 38.3756 25.5337V41.5794H36.5004V31.1591C36.5004 30.6413 36.0806 30.2216 35.5629 30.2216H31.8126C31.2949 30.2216 30.8751 30.6413 30.8751 31.1591V41.5794H29.0009V29.2839C29.0009 28.7662 28.5811 28.3464 28.0634 28.3464H24.3131C23.7954 28.3464 23.3756 28.7662 23.3756 29.2839V41.5794H21.5004V37.4094C21.5004 36.8917 21.0806 36.4719 20.5629 36.4719H16.8126C16.2949 36.4719 15.8751 36.8917 15.8751 37.4094V41.5794H14.9375C14.4197 41.5794 14 41.9991 14 42.5169C14 43.0346 14.4197 43.4544 14.9375 43.4544H45.0625C45.5802 43.4544 46 43.0346 46 42.5169C46 41.9991 45.5802 41.5794 45.0625 41.5794Z" fill="#A11692"/>
<path d="M45.0626 12.5457H41.7664C41.2487 12.5457 40.8289 12.9654 40.8289 13.4832C40.8289 14.0009 41.2487 14.4207 41.7664 14.4207H42.9617L33.5004 24.9639L26.6607 20.9737C26.2769 20.7497 25.7887 20.826 25.4915 21.1562L14.2408 33.657C13.8944 34.0418 13.9256 34.6346 14.3105 34.981C14.4896 35.1422 14.7139 35.2217 14.9373 35.2217C15.1938 35.2217 15.4493 35.117 15.6344 34.9113L26.3749 22.9776L33.2154 26.9685C33.5997 27.1927 34.0886 27.116 34.3856 26.7848L44.1251 15.9315V16.7915C44.1251 17.3093 44.5449 17.729 45.0626 17.729C45.5804 17.729 46.0001 17.3093 46.0001 16.7915V13.4832C46.0001 12.9654 45.5804 12.5457 45.0626 12.5457Z" fill="#A11692"/>
</g>
<defs>
<clipPath id="clip0_14_192">
<rect width="32" height="32" fill="white" transform="translate(14 12)"/>
</clipPath>
</defs>
</svg>
