<svg width="60" height="61" viewBox="0 0 60 61" fill="none" xmlns="http://www.w3.org/2000/svg">
<rect x="0.5" y="0.540527" width="59" height="59" rx="29.5" stroke="#A11692"/>
<g clip-path="url(#clip0_37_237)">
<path d="M40.8516 21.3164V18.1426C40.8516 17.5116 40.34 17 39.709 17C39.078 17 38.5664 17.5116 38.5664 18.1426V22.0781H40.0898C40.5105 22.0781 40.8516 21.7371 40.8516 21.3164Z" fill="#A11692"/>
<path d="M28.5372 26.6992H26.5059C25.0514 26.6992 23.853 27.8167 23.7244 29.2383H31.3187C31.1901 27.8167 29.9917 26.6992 28.5372 26.6992Z" fill="#A11692"/>
<path d="M27.5215 25.1758C28.5031 25.1758 29.2988 24.38 29.2988 23.3984C29.2988 22.4168 28.5031 21.6211 27.5215 21.6211C26.5399 21.6211 25.7441 22.4168 25.7441 23.3984C25.7441 24.38 26.5399 25.1758 27.5215 25.1758Z" fill="#A11692"/>
<path d="M33.6829 39.9023H26.0181C25.627 39.9023 25.284 39.6159 25.2411 39.2273C25.1904 38.7678 25.5488 38.3789 25.998 38.3789H32.8076C32.6107 37.8967 32.4691 37.3863 32.391 36.8555H26.0181C25.627 36.8555 25.284 36.569 25.2411 36.1804C25.1904 35.7209 25.5488 35.332 25.998 35.332H32.3442C32.3886 34.8043 32.4953 34.294 32.657 33.8086H26.0181C25.627 33.8086 25.284 33.5221 25.2411 33.1335C25.1904 32.674 25.5488 32.2852 25.998 32.2852H33.3946C34.2413 30.9917 35.5292 30.0121 37.043 29.5619V18.1426C37.043 17.7339 37.1356 17.3465 37.3007 17H20.2852C19.0251 17 18 18.0251 18 19.2852V42.2383C18 42.659 18.341 43 18.7617 43H36.2812C36.7019 43 37.043 42.659 37.043 42.2383V42.2193C35.692 41.8176 34.521 40.9942 33.6829 39.9023ZM22.1895 29.4922C22.1895 27.66 23.3375 26.0918 24.9515 25.4665C24.4949 24.9001 24.2207 24.1809 24.2207 23.3984C24.2207 21.5784 25.7014 20.0977 27.5215 20.0977C29.3415 20.0977 30.8223 21.5784 30.8223 23.3984C30.8223 24.1809 30.5481 24.9001 30.0915 25.4665C31.7055 26.0918 32.8535 27.66 32.8535 29.4922V30C32.8535 30.4207 32.5125 30.7617 32.0918 30.7617H22.9512C22.5305 30.7617 22.1895 30.4207 22.1895 30V29.4922ZM22.9512 39.9023H21.4277C21.0071 39.9023 20.666 39.5613 20.666 39.1406C20.666 38.72 21.0071 38.3789 21.4277 38.3789H22.9512C23.3718 38.3789 23.7129 38.72 23.7129 39.1406C23.7129 39.5613 23.3718 39.9023 22.9512 39.9023ZM22.9512 36.8555H21.4277C21.0071 36.8555 20.666 36.5144 20.666 36.0938C20.666 35.6731 21.0071 35.332 21.4277 35.332H22.9512C23.3718 35.332 23.7129 35.6731 23.7129 36.0938C23.7129 36.5144 23.3718 36.8555 22.9512 36.8555ZM22.9512 33.8086H21.4277C21.0071 33.8086 20.666 33.4675 20.666 33.0469C20.666 32.6262 21.0071 32.2852 21.4277 32.2852H22.9512C23.3718 32.2852 23.7129 32.6262 23.7129 33.0469C23.7129 33.4675 23.3718 33.8086 22.9512 33.8086Z" fill="#A11692"/>
<path d="M38.9219 30.8125C36.1173 30.8125 33.8438 33.086 33.8438 35.8906C33.8438 38.6952 36.1173 40.9688 38.9219 40.9688C41.7265 40.9688 44 38.6952 44 35.8906C44 33.086 41.7265 30.8125 38.9219 30.8125ZM41.4842 35.0801L38.6117 37.9527C38.3142 38.2502 37.8319 38.2502 37.5344 37.9527L36.0981 36.5164C35.8007 36.2189 35.8007 35.7367 36.0981 35.4392C36.3956 35.1417 36.8779 35.1417 37.1754 35.4392L38.073 36.3368L40.407 34.0028C40.7045 33.7054 41.1868 33.7054 41.4842 34.0028C41.7817 34.3003 41.7817 34.7826 41.4842 35.0801Z" fill="#A11692"/>
</g>
<defs>
<clipPath id="clip0_37_237">
<rect width="26" height="26" fill="white" transform="translate(18 17)"/>
</clipPath>
</defs>
</svg>
