<svg width="60" height="61" viewBox="0 0 60 61" fill="none" xmlns="http://www.w3.org/2000/svg">
<rect x="0.5" y="0.540527" width="59" height="59" rx="29.5" stroke="#A11692"/>
<path d="M20.514 19.812H39.236C41.865 19.812 44 21.946 44 24.576V26.353H15.75V24.576C15.75 21.947 17.884 19.812 20.514 19.812Z" fill="#A11692"/>
<path d="M22.6079 34.498C23.1602 34.498 23.6079 34.0503 23.6079 33.498C23.6079 32.9458 23.1602 32.498 22.6079 32.498C22.0556 32.498 21.6079 32.9458 21.6079 33.498C21.6079 34.0503 22.0556 34.498 22.6079 34.498Z" fill="#A11692"/>
<path d="M26.175 41H20C17.239 41 15 38.761 15 36V24C15 21.239 17.239 19 20 19H40C42.761 19 45 21.239 45 24V28.319C45 28.871 44.552 29.319 44 29.319C43.448 29.319 43 28.871 43 28.319V24C43 22.343 41.657 21 40 21H20C18.343 21 17 22.343 17 24V36C17 37.657 18.343 39 20 39H26.175C26.727 39 27.175 39.448 27.175 40C27.175 40.552 26.727 41 26.175 41Z" fill="#A11692"/>
<path d="M36 21H24V18C24 16.346 25.346 15 27 15H33C34.654 15 36 16.346 36 18V21ZM26 19H34V18C34 17.449 33.552 17 33 17H27C26.448 17 26 17.449 26 18V19Z" fill="#A11692"/>
<path d="M37 45C32.589 45 29 41.411 29 37C29 32.589 32.589 29 37 29C41.411 29 45 32.589 45 37C45 41.411 41.411 45 37 45ZM37 31C33.691 31 31 33.691 31 37C31 40.309 33.691 43 37 43C40.309 43 43 40.309 43 37C43 33.691 40.309 31 37 31Z" fill="#A11692"/>
<path d="M23.6079 23.8521C23.6079 23.2998 23.1602 22.8521 22.6079 22.8521C22.0556 22.8521 21.6079 23.2998 21.6079 23.8521V28.8521C21.6079 29.4043 22.0556 29.8521 22.6079 29.8521C23.1602 29.8521 23.6079 29.4043 23.6079 28.8521V23.8521Z" fill="#A11692"/>
<path d="M16 25.3521H44V27.3521H16V25.3521Z" fill="#A11692"/>
<path d="M37 30C33.134 30 30 33.134 30 37C30 40.866 33.134 44 37 44C40.866 44 44 40.866 44 37C44 33.134 40.866 30 37 30ZM38 36.727C38 37.157 37.836 37.57 37.542 37.883L36.578 38.908C36.2 39.31 35.567 39.33 35.165 38.952C34.763 38.574 34.743 37.941 35.121 37.539L35.843 36.77C35.944 36.663 35.999 36.522 35.999 36.375V33.498C35.999 32.946 36.447 32.498 36.999 32.498C37.551 32.498 37.999 32.946 37.999 33.498L38 36.727Z" fill="#A11692"/>
</svg>
