<svg width="60" height="61" viewBox="0 0 60 61" fill="none" xmlns="http://www.w3.org/2000/svg">
<rect x="0.5" y="0.540527" width="59" height="59" rx="29.5" stroke="#A11692"/>
<path d="M17.6523 23.0837C16.1157 21.5471 16.1157 19.0558 17.6523 17.5192C19.1889 15.9825 21.6803 15.9825 23.2169 17.5192C23.7291 18.0314 23.7291 18.8618 23.2169 19.374L19.5072 23.0837C18.995 23.5959 18.1645 23.5959 17.6523 23.0837Z" fill="#A11692"/>
<path d="M42.3475 23.0837C43.8842 21.5471 43.8842 19.0558 42.3475 17.5192C40.811 15.9825 38.3197 15.9825 36.7831 17.5192C36.2709 18.0314 36.2709 18.8618 36.7831 19.374L40.4927 23.0837C41.0049 23.5959 41.8354 23.5959 42.3475 23.0837Z" fill="#A11692"/>
<path fill-rule="evenodd" clip-rule="evenodd" d="M20.7772 38.5461C19.1618 36.5267 18.1959 33.9652 18.1959 31.1781C18.1959 24.6588 23.4808 19.3739 30 19.3739C36.5194 19.3739 41.8042 24.6588 41.8042 31.1781C41.8042 33.9652 40.8383 36.5267 39.2229 38.5461L41.4201 40.7433C41.9322 41.2554 41.9322 42.0859 41.4201 42.5981C40.9079 43.1103 40.0774 43.1103 39.5652 42.5981L37.3681 40.401C35.3487 42.0163 32.7871 42.9823 30 42.9823C27.2129 42.9823 24.6514 42.0163 22.632 40.401L20.4349 42.5981C19.9227 43.1103 19.0922 43.1103 18.58 42.5981C18.0678 42.0859 18.0678 41.2554 18.58 40.7433L20.7772 38.5461ZM30 24.6202C29.2757 24.6202 28.6885 25.2074 28.6885 25.9318V32.4897C28.6885 32.8375 28.8267 33.1712 29.0726 33.4171L31.6958 36.0402C32.208 36.5524 33.0384 36.5524 33.5506 36.0402C34.0628 35.5281 34.0628 34.6976 33.5506 34.1854L31.3116 31.9464V25.9318C31.3116 25.2074 30.7244 24.6202 30 24.6202Z" fill="#A11692"/>
</svg>
