<svg width="60" height="61" viewBox="0 0 60 61" fill="none" xmlns="http://www.w3.org/2000/svg">
<rect x="0.5" y="0.540527" width="59" height="59" rx="29.5" stroke="#A11692"/>
<g clip-path="url(#clip0_14_201)">
<path d="M34.5572 17.6572V18.7937C34.5572 19.2582 34.1806 19.6347 33.7162 19.6347H21.8574C21.3929 19.6347 21.0163 19.2582 21.0163 18.7937V17.6572H16.9794V43.6327H32.1717C32.1695 43.5603 32.1681 43.4876 32.1681 43.4147C32.1681 41.6431 32.8056 40.0179 33.8628 38.7555C33.815 38.7639 33.7663 38.7692 33.7162 38.7692H26.203C25.7386 38.7692 25.362 38.3926 25.362 37.9281C25.362 37.4636 25.7386 37.0871 26.203 37.0871H33.7162C34.1806 37.0871 34.5572 37.4636 34.5572 37.9281C34.5572 37.9661 34.5538 38.0033 34.5489 38.04C35.5448 37.1338 36.7928 36.5001 38.1738 36.2574V17.6572H34.5572ZM22.5654 38.769H21.1847C20.7202 38.769 20.3436 38.3925 20.3436 37.928C20.3436 37.4634 20.7202 37.0869 21.1847 37.0869H22.5654C23.0298 37.0869 23.4064 37.4634 23.4064 37.928C23.4064 38.3924 23.0297 38.769 22.5654 38.769ZM22.5654 34.6479H21.1847C20.7202 34.6479 20.3436 34.2714 20.3436 33.8068C20.3436 33.3423 20.7202 32.9658 21.1847 32.9658H22.5654C23.0298 32.9658 23.4064 33.3423 23.4064 33.8068C23.4064 34.2714 23.0297 34.6479 22.5654 34.6479ZM22.5654 30.5267H21.1847C20.7202 30.5267 20.3436 30.1502 20.3436 29.6857C20.3436 29.2212 20.7202 28.8446 21.1847 28.8446H22.5654C23.0298 28.8446 23.4064 29.2212 23.4064 29.6857C23.4064 30.1502 23.0297 30.5267 22.5654 30.5267ZM22.5654 26.4056H21.1847C20.7202 26.4056 20.3436 26.0291 20.3436 25.5646C20.3436 25.1 20.7202 24.7235 21.1847 24.7235H22.5654C23.0298 24.7235 23.4064 25.1 23.4064 25.5646C23.4064 26.0291 23.0297 26.4056 22.5654 26.4056ZM33.7163 34.6479H26.2031C25.7387 34.6479 25.3621 34.2714 25.3621 33.8068C25.3621 33.3423 25.7386 32.9658 26.2031 32.9658H33.7163C34.1807 32.9658 34.5573 33.3423 34.5573 33.8068C34.5573 34.2714 34.1807 34.6479 33.7163 34.6479ZM33.7163 30.5267H26.2031C25.7387 30.5267 25.3621 30.1502 25.3621 29.6857C25.3621 29.2212 25.7386 28.8446 26.2031 28.8446H33.7163C34.1807 28.8446 34.5573 29.2212 34.5573 29.6857C34.5573 30.1502 34.1807 30.5267 33.7163 30.5267ZM33.7163 26.4056H26.2031C25.7387 26.4056 25.3621 26.0291 25.3621 25.5646C25.3621 25.1 25.7386 24.7235 26.2031 24.7235H33.7163C34.1807 24.7235 34.5573 25.1 34.5573 25.5646C34.5573 26.0291 34.1807 26.4056 33.7163 26.4056Z" fill="#A11692"/>
<path d="M27.8106 11H27.3427C25.302 11 23.5776 12.375 23.0439 14.2467H24.8379C25.292 13.321 26.244 12.6821 27.3426 12.6821H27.8106C28.9093 12.6821 29.8613 13.321 30.3154 14.2467H32.1095C31.5757 12.375 29.8514 11 27.8106 11Z" fill="#A11692"/>
<path d="M39.4355 37.8296C36.3558 37.8296 33.8503 40.3351 33.8503 43.4148C33.8503 46.4945 36.3558 49.0001 39.4355 49.0001C42.5152 49.0001 45.0207 46.4945 45.0207 43.4148C45.0206 40.3351 42.5151 37.8296 39.4355 37.8296ZM42.003 43.0083L39.564 45.1109C39.4062 45.2469 39.2106 45.3149 39.0149 45.3149C38.82 45.3149 38.6251 45.2474 38.4675 45.1124L37.241 44.0611C36.8883 43.7588 36.8475 43.2278 37.1497 42.8752C37.452 42.5225 37.9829 42.4816 38.3357 42.7841L39.0133 43.3648L40.9048 41.7343C41.2567 41.431 41.7877 41.4704 42.091 41.8222C42.3943 42.1739 42.3549 42.7049 42.003 43.0083Z" fill="#A11692"/>
<path d="M32.8748 15.9285H22.6982V17.952H32.8748V15.9285Z" fill="#A11692"/>
</g>
<defs>
<clipPath id="clip0_14_201">
<rect width="38" height="38" fill="white" transform="translate(12 11)"/>
</clipPath>
</defs>
</svg>
