<svg width="253" height="35" viewBox="0 0 253 35" fill="none" xmlns="http://www.w3.org/2000/svg">
<g clip-path="url(#clip0_1_332)">
<path d="M181.741 0.5C182.031 0.5 182.24 0.594745 182.375 0.791003C182.503 0.987261 182.524 1.21059 182.422 1.47452C182.355 1.70462 182.227 1.89411 182.031 2.05653C180.77 3.22731 179.914 4.56051 179.455 6.04936L172.171 30.0199C172.01 30.541 172.09 31.0283 172.414 31.4817C172.772 31.9689 173.176 32.4427 173.628 32.8961C173.824 33.0585 173.952 33.2548 174.019 33.4781C174.114 33.7353 174.1 33.9654 173.972 34.1616C173.844 34.3579 173.635 34.4526 173.338 34.4526H169.602C168.503 34.4526 167.504 34.121 166.614 33.451C165.724 32.7878 165.117 31.9148 164.793 30.8455L164.159 28.8965L157.213 6.0426C156.761 4.54697 155.904 3.21377 154.637 2.04976C154.441 1.88734 154.313 1.69108 154.245 1.46776C154.151 1.21059 154.171 0.980494 154.32 0.784236C154.468 0.587978 154.67 0.493233 154.927 0.493233H162.986C163.276 0.493233 163.546 0.587978 163.788 0.784236C164.031 0.980494 164.186 1.20382 164.247 1.46776C164.341 1.69785 164.341 1.88734 164.247 2.04976C163.694 3.22054 163.647 4.55374 164.099 6.0426L170.897 28.4566L177.742 6.0426C178.194 4.54697 178.147 3.21377 177.594 2.04976C177.499 1.88734 177.479 1.69108 177.546 1.46776C177.641 1.21059 177.816 0.980494 178.059 0.784236C178.302 0.587978 178.572 0.493233 178.862 0.493233H181.728L181.741 0.5Z" fill="#F45866"/>
<path d="M206.506 33.4849C206.6 33.742 206.587 33.9721 206.459 34.1684C206.331 34.3647 206.121 34.4594 205.825 34.4594H197.765C197.509 34.4594 197.246 34.3647 196.99 34.1684C196.734 33.9721 196.572 33.7488 196.504 33.4849C196.437 33.2548 196.437 33.0653 196.504 32.9029C197.057 31.705 197.105 30.3718 196.653 28.91L196.167 27.2046C196.005 26.6835 195.648 26.4264 195.101 26.4264H184.567C184.014 26.4264 183.677 26.6835 183.549 27.2046L183.016 28.91C182.564 30.3718 182.611 31.705 183.164 32.9029C183.259 33.0653 183.279 33.2615 183.212 33.4849C183.117 33.742 182.942 33.9721 182.699 34.1684C182.456 34.3647 182.186 34.4594 181.896 34.4594H179.03C178.774 34.4594 178.572 34.3647 178.423 34.1684C178.275 33.9721 178.255 33.7488 178.349 33.4849C178.416 33.2548 178.545 33.0653 178.74 32.9029C180.001 31.7321 180.858 30.3989 181.316 28.91L188.263 6.15764C188.492 5.44029 188.499 4.70939 188.29 3.96497C188.081 3.22054 187.696 2.59793 187.15 2.11067V2.0633C186.955 1.90088 186.826 1.70462 186.759 1.48129C186.665 1.22412 186.678 0.994028 186.806 0.79777C186.934 0.601513 187.143 0.506767 187.44 0.506767H195.499C195.695 0.506767 195.87 0.547372 196.032 0.628583C196.194 0.709793 196.349 0.824841 196.491 0.966958C196.632 1.10908 196.727 1.28503 196.761 1.48129C196.828 1.71139 196.828 1.90088 196.761 2.0633C196.208 3.23408 196.16 4.56728 196.612 6.05613L203.559 28.91C204.011 30.3718 204.867 31.705 206.135 32.9029C206.33 33.0653 206.459 33.2615 206.526 33.4849H206.506ZM194.656 24.8157C194.852 24.8157 195.007 24.7412 195.115 24.5991C195.23 24.4502 195.25 24.2811 195.189 24.0848L189.848 6.49602L184.459 24.0848C184.426 24.2134 184.426 24.3352 184.459 24.4502C184.493 24.5653 184.554 24.6533 184.655 24.7209C184.749 24.7886 184.864 24.8157 184.992 24.8157H194.656Z" fill="#F45866"/>
<path d="M0.121547 26.1286L3.88478 26.176C3.5206 29.7221 5.81361 31.2854 8.92941 31.3734C11.9103 31.4682 14.2977 29.8981 14.7563 27.6919C15.2622 25.3435 13.5626 24.1931 9.94103 23.5975C4.57269 22.7719 1.0455 21.662 1.78061 17.2022C2.4213 12.8778 6.69035 10.2114 11.8699 10.2114C17.8317 10.2114 20.9475 13.2974 20.354 18.2647H16.5503C16.8268 15.3209 15.0801 13.338 11.5057 13.2974C8.80127 13.25 6.18454 14.7727 5.77314 17.3037C5.36175 19.74 7.10174 20.4303 10.7706 21.1206C16.8268 22.2237 19.5312 23.4216 18.7017 27.9287C17.8789 32.1652 13.6571 34.6015 8.33592 34.4662C3.15641 34.3308 -0.741704 31.5223 0.128292 26.1353L0.121547 26.1286Z" fill="#404040"/>
<path d="M24.751 10.6648H28.7436L28.1501 14.0215C30.3487 11.213 34.5705 10.2046 37.5042 10.8002L36.2228 14.5291C32.9182 13.6087 27.968 14.9893 27.1452 19.7739L24.6701 33.9924H20.6776L24.7578 10.6648H24.751Z" fill="#404040"/>
<path d="M40.6133 10.6648H44.6935L40.4716 33.9924H36.5263L40.6065 10.6648H40.6133ZM43.7358 3.49124C45.0644 3.49124 46.1637 4.31688 45.9344 5.5621C45.7051 6.80732 44.3293 7.63296 43.0007 7.63296C41.6721 7.63296 40.5256 6.80732 40.7549 5.5621C40.9842 4.31688 42.36 3.49124 43.7358 3.49124Z" fill="#404040"/>
<path d="M50.9318 3.62659H54.8771L51.849 20.6063L64.1841 10.6648H68.8173L57.5343 20.1461L66.1534 33.9992H61.6618L54.2769 22.3591L51.1139 24.8428L49.5088 33.9992H45.5635L50.9318 3.62659Z" fill="#404040"/>
<path d="M67.2594 27.5092C68.0417 22.5824 71.8926 20.1935 77.3486 19.7807C79.6889 19.6453 82.6226 19.5506 84.6863 19.5506C85.1921 15.9164 84.0928 13.4327 80.053 13.4327C77.2542 13.4327 74.1384 14.908 73.0391 18.17H69.3703C70.9282 12.7424 75.8784 10.2114 80.6061 10.2114C87.3502 10.164 89.5488 14.4478 88.3079 21.5334L86.1498 34.006H82.2044L83.1688 28.301C81.6986 31.0621 79.1358 33.8706 75.0556 34.4188C70.011 35.0617 66.6187 32.0705 67.2594 27.5159V27.5092ZM76.89 31.1907C80.5116 30.5478 83.4454 27.0963 84.2749 22.0816C82.3933 22.0342 80.1003 22.0816 77.9961 22.2643C74.651 22.4471 71.7577 23.7396 71.2519 27.049C70.6989 30.3177 73.6798 31.7862 76.89 31.1907Z" fill="#404040"/>
<path d="M93.1704 10.6648H97.1157L96.2458 15.6322C98.2623 12.086 101.884 10.2046 105.141 10.2046C111.649 10.1099 114.772 14.1162 113.531 21.1545L111.285 33.9924H107.34L109.451 21.8921C110.321 16.8774 108.351 13.656 103.624 13.656C99.1322 13.7034 95.9692 17.3376 95.052 22.6298L93.0355 33.9924H89.0902L93.1704 10.6648Z" fill="#404040"/>
<path d="M115.001 22.4471C116.33 14.8065 122.197 10.2046 128.436 10.2046C132.334 10.2046 135.449 12.0454 136.596 15.7269L138.754 3.62659H142.605L137.284 33.9992H133.48L134.397 28.8424C131.969 32.5239 128.206 34.4594 124.355 34.5C117.888 34.5474 113.808 29.2078 115.001 22.4471ZM125.866 30.9606C130.176 30.9132 134.438 27.4618 135.315 22.4471C136.279 16.9721 133.069 13.7034 128.894 13.656C124.261 13.6087 119.904 17.1075 118.947 22.4471C118.077 27.4618 121.469 31.008 125.873 30.9606H125.866Z" fill="#404040"/>
<path d="M146.233 10.6648H150.314L146.092 33.9924H142.146L146.227 10.6648H146.233ZM149.349 3.49124C150.678 3.49124 151.777 4.31688 151.548 5.5621C151.318 6.80732 149.943 7.63296 148.614 7.63296C147.285 7.63296 146.139 6.80732 146.368 5.5621C146.598 4.31688 147.973 3.49124 149.349 3.49124Z" fill="#404040"/>
<path d="M210.404 31.4681C210.68 30.1349 211.962 29.0318 213.338 29.0318C214.713 29.0318 215.583 30.1349 215.354 31.4681C215.125 32.8487 213.843 33.9992 212.508 33.9992C211.173 33.9992 210.168 32.8487 210.397 31.4681H210.404Z" fill="#404040"/>
<path d="M220.122 10.6648H224.202L219.981 33.9924H216.035L220.116 10.6648H220.122ZM223.238 3.49124C224.567 3.49124 225.666 4.31688 225.437 5.5621C225.207 6.80732 223.832 7.63296 222.503 7.63296C221.174 7.63296 220.028 6.80732 220.257 5.5621C220.486 4.31688 221.862 3.49124 223.238 3.49124Z" fill="#404040"/>
<path d="M225.396 22.4471C226.725 14.8065 232.592 10.2046 238.831 10.2046C242.729 10.2046 245.844 12.0454 246.991 15.7269L249.149 3.62659H253L247.679 33.9992H243.875L244.792 28.8424C242.364 32.5239 238.601 34.4594 234.75 34.5C228.283 34.5474 224.202 29.2078 225.396 22.4471ZM236.268 30.9606C240.577 30.9132 244.84 27.4618 245.716 22.4471C246.681 16.9721 243.471 13.7034 239.296 13.656C234.663 13.6087 230.306 17.1075 229.348 22.4471C228.478 27.4618 231.871 31.008 236.275 30.9606H236.268Z" fill="#404040"/>
</g>
<defs>
<clipPath id="clip0_1_332">
<rect width="253" height="34" fill="white" transform="translate(0 0.5)"/>
</clipPath>
</defs>
</svg>
