<svg width="455" height="61" viewBox="0 0 455 61" fill="none" xmlns="http://www.w3.org/2000/svg">
<g clip-path="url(#clip0_89_25)">
<path d="M326.847 5.67585e-05C327.369 5.67585e-05 327.745 0.170041 327.987 0.522151C328.218 0.874261 328.254 1.27494 328.072 1.74846C327.951 2.16128 327.72 2.50125 327.369 2.79265C325.101 4.89317 323.56 7.28509 322.735 9.95627L309.636 52.9622C309.345 53.8971 309.491 54.7714 310.073 55.5848C310.716 56.4591 311.443 57.309 312.256 58.1225C312.608 58.4139 312.838 58.766 312.96 59.1667C313.129 59.628 313.105 60.0409 312.875 60.393C312.644 60.7451 312.268 60.9151 311.735 60.9151H305.015C303.038 60.9151 301.243 60.3201 299.642 59.1181C298.041 57.9282 296.95 56.3619 296.367 54.4435L295.227 50.9467L282.735 9.94413C281.922 7.26081 280.382 4.86889 278.101 2.78051C277.75 2.48911 277.519 2.137 277.398 1.73632C277.228 1.27494 277.265 0.862119 277.531 0.510009C277.798 0.157899 278.162 -0.012085 278.623 -0.012085H293.117C293.638 -0.012085 294.124 0.157899 294.56 0.510009C294.997 0.862119 295.276 1.2628 295.385 1.73632C295.555 2.14914 295.555 2.48911 295.385 2.78051C294.39 4.88103 294.305 7.27295 295.118 9.94413L307.344 50.1575L319.655 9.94413C320.467 7.26081 320.382 4.86889 319.388 2.78051C319.218 2.48911 319.182 2.137 319.303 1.73632C319.473 1.27494 319.788 0.862119 320.225 0.510009C320.661 0.157899 321.146 -0.012085 321.668 -0.012085H326.823L326.847 5.67585e-05Z" fill="#F45866"/>
<path d="M371.384 59.1788C371.554 59.6402 371.53 60.053 371.299 60.4051C371.069 60.7572 370.693 60.9272 370.159 60.9272H355.665C355.204 60.9272 354.731 60.7572 354.27 60.4051C353.809 60.053 353.518 59.6523 353.397 59.1788C353.276 58.766 353.276 58.426 353.397 58.1346C354.392 55.9855 354.477 53.5936 353.664 50.971L352.791 47.9113C352.5 46.9764 351.857 46.515 350.874 46.515H331.929C330.935 46.515 330.328 46.9764 330.098 47.9113L329.139 50.971C328.327 53.5936 328.412 55.9855 329.406 58.1346C329.576 58.426 329.612 58.7781 329.491 59.1788C329.321 59.6402 329.006 60.053 328.569 60.4051C328.133 60.7572 327.648 60.9272 327.126 60.9272H321.971C321.51 60.9272 321.147 60.7572 320.88 60.4051C320.613 60.053 320.577 59.6523 320.746 59.1788C320.868 58.766 321.098 58.426 321.45 58.1346C323.718 56.0341 325.258 53.6422 326.083 50.971L338.576 10.1505C338.988 8.86352 339 7.55221 338.624 6.21663C338.248 4.88104 337.557 3.764 336.574 2.88979V2.8048C336.223 2.5134 335.992 2.16129 335.871 1.76061C335.701 1.29923 335.725 0.886411 335.956 0.534301C336.186 0.182191 336.562 0.012207 337.096 0.012207H351.59C351.942 0.012207 352.257 0.0850573 352.548 0.230758C352.839 0.376459 353.118 0.582868 353.373 0.837844C353.627 1.09282 353.797 1.4085 353.858 1.76061C353.979 2.17343 353.979 2.5134 353.858 2.8048C352.863 4.90532 352.778 7.29724 353.591 9.96842L366.084 50.971C366.896 53.5936 368.437 55.9855 370.717 58.1346C371.069 58.426 371.299 58.7781 371.42 59.1788H371.384ZM350.074 43.6253C350.425 43.6253 350.704 43.4917 350.899 43.2367C351.105 42.9696 351.141 42.6661 351.032 42.314L341.426 10.7576L331.735 42.314C331.674 42.5447 331.674 42.7632 331.735 42.9696C331.796 43.176 331.905 43.3339 332.087 43.4553C332.257 43.5767 332.463 43.6253 332.693 43.6253H350.074Z" fill="#F45866"/>
<path d="M0.218474 45.9808L6.98635 46.0658C6.33139 52.428 10.4552 55.2328 16.0587 55.3906C21.4196 55.5606 25.7132 52.7437 26.538 48.7855C27.4476 44.5723 24.3912 42.5083 17.878 41.4398C8.22348 39.9585 1.88012 37.9673 3.20216 29.9659C4.3544 22.2073 12.0319 17.4235 21.3468 17.4235C32.0687 17.4235 37.6722 22.9601 36.6049 31.8721H29.7642C30.2615 26.5905 27.1202 23.0329 20.6919 22.9601C15.8282 22.8751 11.1223 25.607 10.3824 30.148C9.64255 34.519 12.7718 35.7575 19.3699 36.9959C30.2615 38.975 35.1252 41.1241 33.6333 49.2105C32.1536 56.8112 24.561 61.1822 14.9914 60.9394C5.67643 60.6965 -1.33401 55.6577 0.230603 45.9929L0.218474 45.9808Z" fill="#404040"/>
<path d="M44.5128 18.2369H51.6931L50.6257 24.2592C54.5797 19.2204 62.1724 17.4113 67.4484 18.4798L65.1439 25.1699C59.2008 23.5186 50.2983 25.9955 48.8185 34.5797L44.3673 60.0895H37.187L44.5249 18.2369H44.5128Z" fill="#404040"/>
<path d="M73.0398 18.2369H80.3777L72.785 60.0894H65.6897L73.0276 18.2369H73.0398ZM78.6554 5.3667C81.0448 5.3667 83.0218 6.84799 82.6094 9.08207C82.197 11.3161 79.7227 12.7974 77.3333 12.7974C74.944 12.7974 72.8821 11.3161 73.2945 9.08207C73.7068 6.84799 76.1811 5.3667 78.6554 5.3667Z" fill="#404040"/>
<path d="M91.5967 5.6095H98.692L93.2462 36.0731L115.43 18.2369H123.762L103.471 35.2474L118.971 60.1015H110.894L97.6126 39.2178L91.9241 43.6738L89.0375 60.1015H81.9421L91.5967 5.6095Z" fill="#404040"/>
<path d="M120.961 48.4577C122.367 39.6185 129.293 35.3325 139.105 34.5918C143.314 34.349 148.59 34.179 152.301 34.179C153.211 27.6589 151.234 23.2029 143.969 23.2029C138.935 23.2029 133.332 25.8498 131.355 31.7021H124.757C127.559 21.9644 136.461 17.4234 144.963 17.4234C157.092 17.3384 161.046 25.0241 158.815 37.7365L154.933 60.1137H147.838L149.572 49.8782C146.928 54.8321 142.319 59.8709 134.981 60.8544C125.909 62.0078 119.808 56.6412 120.961 48.4698V48.4577ZM138.28 55.0628C144.794 53.9093 150.07 47.717 151.562 38.72C148.178 38.635 144.054 38.72 140.27 39.0478C134.254 39.3757 129.05 41.6947 128.141 47.632C127.146 53.4965 132.507 56.1312 138.28 55.0628Z" fill="#404040"/>
<path d="M167.56 18.2369H174.655L173.09 27.1489C176.717 20.7867 183.23 17.4113 189.088 17.4113C200.793 17.2413 206.408 24.4292 204.176 37.0566L200.138 60.0894H193.042L196.839 38.38C198.403 29.383 194.862 23.6036 186.359 23.6036C178.281 23.6885 172.593 30.2086 170.944 39.7035L167.317 60.0894H160.222L167.56 18.2369Z" fill="#404040"/>
<path d="M206.82 39.3756C209.21 25.6676 219.762 17.4112 230.981 17.4112C237.991 17.4112 243.595 20.7138 245.657 27.3189L249.538 5.6095H256.464L246.894 60.1015H240.053L241.703 50.8495C237.336 57.4546 230.569 60.9272 223.643 61C212.011 61.085 204.674 51.5052 206.82 39.3756ZM226.36 54.6499C234.11 54.5649 241.776 48.3726 243.352 39.3756C245.087 29.553 239.313 23.6885 231.806 23.6035C223.473 23.5185 215.638 29.7958 213.916 39.3756C212.351 48.3726 218.452 54.7349 226.372 54.6499H226.36Z" fill="#404040"/>
<path d="M262.989 18.2369H270.327L262.734 60.0894H255.639L262.977 18.2369H262.989ZM268.592 5.3667C270.982 5.3667 272.959 6.84799 272.546 9.08207C272.134 11.3161 269.66 12.7974 267.27 12.7974C264.881 12.7974 262.819 11.3161 263.232 9.08207C263.644 6.84799 266.118 5.3667 268.592 5.3667Z" fill="#404040"/>
<path d="M378.394 55.5606C378.892 53.1687 381.196 51.1896 383.67 51.1896C386.145 51.1896 387.709 53.1687 387.297 55.5606C386.885 58.0375 384.58 60.1016 382.179 60.1016C379.777 60.1016 377.97 58.0375 378.382 55.5606H378.394Z" fill="#404040"/>
<path d="M395.872 18.2369H403.21L395.617 60.0894H388.522L395.86 18.2369H395.872ZM401.476 5.3667C403.865 5.3667 405.842 6.84799 405.43 9.08207C405.017 11.3161 402.543 12.7974 400.154 12.7974C397.764 12.7974 395.702 11.3161 396.115 9.08207C396.527 6.84799 399.001 5.3667 401.476 5.3667Z" fill="#404040"/>
<path d="M405.357 39.3756C407.746 25.6676 418.298 17.4112 429.517 17.4112C436.528 17.4112 442.131 20.7138 444.193 27.3189L448.074 5.6095H455L445.43 60.1015H438.59L440.239 50.8495C435.873 57.4546 429.105 60.9272 422.179 61C410.548 61.085 403.21 51.5052 405.357 39.3756ZM424.908 54.6499C432.659 54.5649 440.324 48.3726 441.901 39.3756C443.635 29.553 437.862 23.6885 430.354 23.6035C422.022 23.5185 414.186 29.7958 412.464 39.3756C410.9 48.3726 417 54.7349 424.92 54.6499H424.908Z" fill="#404040"/>
</g>
<defs>
<clipPath id="clip0_89_25">
<rect width="455" height="61" fill="white"/>
</clipPath>
</defs>
</svg>
